<svg width="975" height="830" viewBox="0 0 975 830" fill="none" xmlns="http://www.w3.org/2000/svg">
<g clip-path="url(#clip0_116_860)">
<path d="M291.827 433.505C306.881 452.723 327.367 466.929 348.212 479.657C340.512 492.477 333.025 507.39 325.325 520.224C316.744 534.511 308.162 548.798 299.568 563.098C288.958 580.756 278.348 598.428 267.739 616.087C262.801 624.296 257.796 632.719 255.968 642.114C237.431 635.504 220.455 623.496 205.215 611.049C189.974 598.601 177.002 583.662 164.11 568.815C160.147 564.244 156.17 559.673 152.206 555.088C148.603 550.93 144.919 546.652 143.064 541.468C148.376 538.763 153.087 535.484 157.851 531.926C163.683 527.581 169.529 523.236 175.361 518.878C182.367 513.654 189.4 508.417 195.699 502.353C199.81 498.395 203.6 494.09 208.084 490.558C215.09 485.028 223.498 481.602 231.185 477.058C236.016 474.193 240.567 470.874 245.105 467.556C259.945 456.734 276.987 444.327 291.827 433.505Z" fill="#64C0FF"/>
<path d="M283.22 601C287.891 605.611 294.31 607.957 300.502 610.156C314.675 615.194 328.848 620.245 343.035 625.282C346.851 626.642 350.668 628.001 354.605 628.934C358.382 629.84 362.252 630.347 366.096 630.853C387.248 633.625 408.895 636.29 430.221 636.091C429.487 629.694 429.18 623.243 429.314 616.82C429.434 611.209 429.874 605.598 430.221 599.987C431.315 582.369 431.476 564.71 431.622 547.052C431.676 541.175 431.729 535.298 431.769 529.42C431.849 520.344 432.93 511.429 431.315 502.513C415.181 500.66 399.393 496.596 383.672 492.557C376.265 490.652 368.831 488.733 361.652 486.107C357.875 484.721 354.178 483.148 350.575 481.376C340.459 500.9 328.848 520.824 317.638 539.735C305.453 560.273 293.776 579.584 283.22 601.014V601Z" fill="#64C0FF"/>
<path d="M518.262 476.312C521.852 483.921 527.136 490.585 532.061 497.408C539.895 508.257 546.914 519.651 553.921 531.046C557.097 536.204 560.26 541.348 563.436 546.506C572.551 561.312 581.68 576.145 591.862 590.245C585.23 595.989 578.53 599.667 570.509 603.212C544.059 614.887 516.58 624.229 488.488 631.093C485.805 631.746 483.109 632.385 480.374 632.799C476.744 633.358 473.074 633.518 469.403 633.692C457.446 634.238 445.502 634.771 433.544 635.317C435.586 614.367 435.693 594.736 435.706 573.693C435.706 566.869 435.492 560.033 435.292 553.209L433.731 502.619C440.324 501.313 446.382 499.727 452.962 498.421C457.152 497.595 461.343 496.769 465.52 495.942C469.684 495.116 473.848 494.29 477.998 493.477C481.308 492.824 484.657 492.157 487.727 490.758C490.917 489.305 493.692 487.107 496.668 485.241C500.659 482.735 504.983 480.829 509.293 478.937C511.909 477.791 515.432 476.511 518.275 476.325H518.262V476.312Z" fill="#64C0FF"/>
<path d="M585.363 575.945C582.694 571.414 580.011 566.896 577.342 562.365C575.928 559.979 574.526 557.594 573.112 555.195C569.322 548.785 565.531 542.361 561.448 536.124C550.558 519.478 537.653 504.192 527.256 487.253C524.734 483.135 522.986 478.284 519.529 474.899C531.02 465.997 541.67 456.028 551.305 445.14C553.894 442.208 556.443 439.182 558.258 435.704C561.101 430.253 563.049 422.537 568.161 419.125C576.608 425.056 586.724 428.068 596.119 432.346C599.936 434.078 603.646 436.024 607.356 437.97C630.204 449.951 653.065 461.918 675.913 473.9C672.443 485.228 667.185 496.835 660.432 506.578C654.733 514.814 647.994 522.25 641.268 529.674C636.049 535.444 630.831 541.202 625.613 546.972C624.305 548.411 622.984 549.877 621.289 550.837C619.888 551.637 618.286 552.063 616.912 552.903C614.616 554.302 613.162 556.714 611.467 558.82C604.554 567.429 593.717 568.762 585.35 575.959L585.363 575.945Z" fill="#64C0FF"/>
<path d="M646.325 341.841C646.926 367.509 642.722 393.284 634.021 417.459C631.432 424.656 628.442 431.719 625.453 438.769C624.679 440.608 624.092 442.367 622.543 443.62C620.822 442.008 618.286 441.728 616.071 440.915C612.174 439.489 609.185 436.357 605.555 434.358C602.018 432.412 597.974 431.586 594.224 430.093C591.515 429.027 588.953 427.601 586.404 426.202L569.802 417.019C570.416 411.502 571.363 406.064 573.845 401.093C575.22 398.335 576.968 395.736 578.116 392.87C578.917 390.871 579.424 388.779 579.931 386.687C583.574 371.534 587.231 356.194 587.084 340.615C595.292 339.575 603.286 342.041 611.56 341.734C616.431 341.561 621.289 340.455 626.133 341.041C628.549 341.334 630.938 342.041 633.367 341.908C635.502 341.788 637.544 341.028 639.639 340.615C641.734 340.202 644.617 340.575 646.352 341.828H646.325V341.841Z" fill="#64C0FF"/>
<path d="M599.709 338.602C595.305 338.602 591.168 338.429 586.804 337.909C585.083 330.233 583.601 322.516 582.64 314.707C582.147 310.749 581.786 306.79 581.159 302.859C579.064 289.758 574.433 277.218 569.428 264.917C573.685 263.184 577.689 260.838 581.279 257.973C584.482 266.582 588.419 274.432 591.609 283.041C592.262 284.814 592.93 286.6 593.37 288.439C594.011 291.064 594.184 293.783 594.611 296.449C595.239 300.313 596.36 304.085 597.254 307.897C599.576 317.905 600.777 328.38 599.696 338.602H599.709Z" fill="#64C0FF"/>
<path d="M575.207 260.612C568.614 248.364 561.368 236.357 552.106 225.975C542.871 215.62 531.567 207.157 520.57 198.667C518.715 200.413 516.94 202.226 515.232 204.105C535.29 216.006 552.039 233.718 563.463 254.042C565.171 257.08 566.772 260.212 568.974 262.931C570.656 261.891 573.312 261.185 575.207 260.625V260.612Z" fill="#64C0FF"/>
<path d="M513.604 203.305C514.551 202.532 515.605 201.733 516.646 201.106C510.668 195.376 503.074 191.631 495.4 188.525C473.58 179.676 449.638 175.505 426.123 176.891C426.097 177.797 426.23 178.703 426.484 179.57C430.474 178.877 434.705 179.396 438.722 179.876C442.512 180.329 446.289 180.782 450.079 181.222C452.401 181.502 454.736 181.782 457.045 182.195C459.648 182.662 462.21 183.301 464.759 183.941C481.641 188.219 499.324 193.363 513.604 203.305Z" fill="#64C0FF"/>
<path d="M473.313 181.689L477.29 166.056C478.371 166.349 479.226 166.416 480.293 166.709C479.039 172.2 477.664 177.811 476.076 183.208" fill="#64C0FF"/>
<path d="M552.039 228.4C554.708 226.028 557.391 223.669 560.073 221.31C568.428 213.98 576.742 206.677 585.283 199.56C584.509 198.561 583.628 197.628 582.681 196.788C577.369 202.106 570.643 207.157 564.958 212.074C559.967 216.406 554.962 220.737 549.971 225.068" fill="#64C0FF"/>
<path d="M594.544 293.757C606.409 290.718 618.38 287.666 630.604 287.013C630.497 288.426 630.751 290.012 630.938 291.411C624.906 292.184 618.727 293.077 612.694 293.837C607.983 294.436 603.246 295.036 598.695 296.382C596.787 296.942 594.878 297.648 592.89 297.742" fill="#64C0FF"/>
<path d="M638.465 401.64C646.566 403.479 655.294 405.824 663.314 408.01C663.501 406.85 663.621 405.744 663.808 404.585C661.499 403.719 659.07 403.186 656.668 402.666L639.799 398.974" fill="#64C0FF"/>
<path d="M635.048 536.39C640.814 541.454 646.339 546.785 651.623 552.343C650.916 553.249 650.035 554.009 648.981 554.502C648.114 553.489 647.233 552.476 646.285 551.543C641.748 547.065 637.224 542.601 632.686 538.123" fill="#64C0FF"/>
<path d="M521.238 620.444C523.333 625.775 524.721 631.399 527.417 636.437C525.709 637.157 523.853 637.503 521.998 637.49C521.171 632.226 519.716 627.068 517.661 622.164" fill="#64C0FF"/>
<path d="M360.33 628.88C358.582 634.744 356.954 640.635 355.419 646.552C357.074 646.699 358.755 647.205 360.317 647.752C360.864 645.713 361.344 643.634 361.892 641.594C362.012 641.141 362.132 640.688 362.225 640.222C362.332 639.675 362.412 639.129 362.519 638.583C362.719 637.61 363.013 636.65 363.306 635.704C363.933 633.651 364.574 631.612 365.201 629.56" fill="#64C0FF"/>
<path d="M518.248 134.431C517.567 138.349 518.048 142.48 518.128 146.452C513.284 147.398 508.306 147.225 503.395 146.825V135.19C508.319 135.35 513.377 135.15 518.248 134.431Z" fill="#64C0FF"/>
<path d="M501.446 147.172C501.753 143.347 502.02 139.402 502.167 135.564C497.963 135.297 493.732 135.364 489.528 135.444C488.06 135.47 486.579 135.497 485.111 135.524C483.91 135.55 482.722 135.564 481.534 135.617C477.197 135.817 472.9 136.483 468.629 135.657C467.895 139.389 467.535 143.2 467.548 146.998C473.874 147.092 480.04 147.292 486.379 147.385C491.37 147.465 496.508 147.532 501.473 147.145L501.446 147.172Z" fill="#64C0FF"/>
<path d="M465.093 139.109C463.825 137.35 463.144 135.177 463.171 133.018C463.171 131.792 463.411 130.566 463.652 129.367C464.145 126.861 464.666 124.316 465.88 122.063C467.081 119.824 468.936 117.945 469.844 115.573C470.631 113.521 470.645 111.175 469.871 109.109C469.097 107.044 467.548 105.298 465.6 104.258C465.667 105.471 465.974 106.671 466.321 107.843C467.028 110.255 466.588 112.841 465.96 115.28C465.667 116.439 465.32 117.599 464.826 118.692C463.571 121.45 461.343 123.769 460.542 126.701C459.982 128.78 460.208 131.006 460.662 133.112C460.956 134.444 461.343 135.79 462.077 136.95C462.811 138.109 463.758 138.789 465.093 139.109Z" fill="#64C0FF"/>
<path d="M462.17 116.372C461.263 119.104 459.007 121.263 458.26 124.035C457.966 125.115 457.926 126.261 458.086 127.367C458.287 128.647 458.78 129.913 458.674 131.205C456.685 130.286 455.444 128.1 455.324 125.915C455.204 123.729 456.085 121.57 457.419 119.824C457.713 119.451 458.02 119.078 458.273 118.678C458.58 118.158 458.767 117.585 458.954 117.012C459.261 116.079 459.568 115.133 459.728 114.147C460.075 111.921 459.434 109.882 459.181 107.696C460.515 106.817 461.823 110.122 462.117 111.001C462.691 112.721 462.731 114.64 462.157 116.372H462.17Z" fill="#64C0FF"/>
<path d="M619.688 150.823C620.155 152.342 620.835 153.928 622.197 154.754C623.198 155.354 624.425 155.447 625.6 155.474C627.521 155.527 629.47 155.474 631.298 154.928C633.127 154.381 634.862 153.262 635.822 151.596C636.636 150.157 636.81 148.464 636.97 146.825C637.104 145.425 637.237 144.039 637.37 142.64C637.557 140.761 637.771 138.775 638.932 137.296C640.093 135.817 642.522 135.137 643.87 136.456C644.577 137.136 644.817 138.162 644.871 139.148C645.044 142.64 643.149 145.985 643.336 149.477C643.429 151.276 644.07 152.982 644.564 154.714C646.459 161.365 646.205 168.468 644.937 175.265C644.671 176.731 644.35 178.183 644.324 179.676C644.283 181.595 644.711 183.488 645.044 185.38C645.351 187.126 645.591 188.885 645.752 190.644C645.872 191.937 645.912 193.35 645.178 194.429C644.377 195.602 642.856 196.042 641.428 196.122C640 196.202 638.572 195.988 637.17 196.215C634.168 196.708 631.712 199.16 628.683 199.427C626.347 199.627 624.145 198.507 621.916 197.761C617.672 196.348 613.122 196.308 608.651 196.295C608.344 191.591 608.05 186.886 607.743 182.182C607.383 176.504 607.023 170.76 608.064 165.163C608.384 163.444 608.838 161.724 609.652 160.179C610.292 158.966 611.146 157.86 611.76 156.633C614.229 151.756 612.681 145.932 612.855 140.468C612.908 138.629 613.509 136.483 615.697 136.336C617.299 136.23 618.126 137.123 618.286 138.562C618.5 140.361 618.14 142.267 618.313 144.106C618.527 146.398 618.98 148.651 619.674 150.85V150.823H619.688Z" fill="#64C0FF"/>
<path d="M672.776 268.675C675.378 269.568 678.181 269.661 680.944 269.741C689.992 269.981 699.04 270.088 708.088 270.061C709.37 270.061 710.771 270.008 711.785 269.208C712.025 269.022 712.239 268.782 712.332 268.502C712.386 268.342 712.399 268.169 712.399 267.995C712.399 266.476 711.171 265.17 709.757 264.584C708.342 263.997 706.781 263.984 705.259 263.971C700.321 263.944 695.383 263.917 690.459 263.891C687.109 263.891 683.76 263.851 680.41 263.837C678.541 263.837 675.619 263.238 673.844 263.984C672.429 264.57 670.814 268.009 672.789 268.688H672.776V268.675Z" fill="#64C0FF"/>
<path d="M679.783 257.093C678.755 257.227 677.474 257.64 677.394 258.679C677.354 259.266 677.767 259.812 678.275 260.092C678.782 260.372 679.396 260.439 679.97 260.492C683.479 260.798 687.003 260.692 690.526 260.585C695.664 260.425 700.789 260.265 705.927 260.105C706.46 260.105 707.048 260.052 707.421 259.679C709.143 257.96 705.833 256.907 704.699 256.827C701.923 256.627 699.174 256.334 696.385 256.254C690.833 256.094 685.281 256.387 679.783 257.12V257.093Z" fill="#64C0FF"/>
<path d="M705.726 309.282C705.366 306.777 705.967 304.245 706.514 301.779C708.556 292.53 709.517 283.081 710.01 273.619C706.914 273.046 703.738 273.766 700.602 274.032C697.799 274.272 694.97 274.152 692.154 274.032L675.272 273.312C675.232 277.724 675.712 282.535 676.193 286.919C676.62 290.798 677.114 294.676 677.674 298.527C678.008 300.873 678.368 303.232 678.368 305.591C678.368 306.99 678.248 308.496 679.022 309.669C685.027 309.282 691.74 311.255 697.759 310.895C700.522 310.735 703.044 309.895 705.74 309.269L705.726 309.282Z" fill="#64C0FF"/>
<path d="M688.711 438.836C695.05 439.728 701.496 439.222 707.888 438.702C709.623 438.556 711.612 438.262 712.519 436.783C713.04 435.93 713.053 434.877 713.067 433.878C713.12 422.523 713.187 411.182 713.24 399.827C713.24 398.294 713.24 396.735 712.733 395.296C712.226 393.856 710.985 392.63 709.477 392.337C709.477 391.005 709.477 389.672 709.463 388.339C707.008 388.192 704.539 388.046 702.083 387.886C702.123 386.806 702.163 385.74 702.203 384.661C702.243 383.555 702.11 382.182 701.082 381.782C700.482 381.542 699.761 381.782 699.307 382.235C698.853 382.688 698.613 383.328 698.493 383.968C698.24 385.274 698.413 386.607 698.6 387.926C695.851 388.006 692.995 388.166 690.259 388.246V391.298C689.685 391.058 689.018 391.644 688.617 392.124C688.217 392.604 688.044 393.23 687.91 393.83C687.029 398.001 687.697 402.333 687.47 406.597C687.336 409.329 686.829 412.021 686.602 414.74C686.309 418.285 686.482 421.857 686.642 425.415C686.776 428.174 686.909 430.933 687.043 433.691C687.123 435.411 687.683 437.45 688.724 438.809V438.836H688.711Z" fill="#64C0FF"/>
<path d="M713.908 595.976C712.747 593.63 710.918 591.685 708.93 589.965C706.207 587.606 702.938 585.567 699.348 585.527C696.372 585.501 693.489 586.9 691.314 588.926C690.633 589.566 689.926 590.299 689.005 590.405C687.67 590.565 686.496 589.192 686.496 587.846C686.496 586.5 687.363 585.288 688.391 584.421C689.432 583.555 690.66 582.955 691.754 582.169C695.397 579.544 697.332 574.799 696.719 570.361C696.105 565.923 692.995 561.938 688.898 560.113C687.59 559.526 686.189 559.153 684.761 558.953C679.436 558.194 673.617 560.153 670.414 564.471C667.225 568.789 667.278 575.452 671.095 579.237C672.056 580.197 673.337 581.303 673.004 582.622C672.79 583.462 671.949 583.995 671.135 584.288C666.905 585.834 666.397 581.383 664.356 578.97C662.047 576.265 658.564 574.533 655 574.426C650.049 574.279 645.178 577.198 642.829 581.556C640.48 585.914 640.707 591.498 643.27 595.736C644.097 597.095 645.125 598.321 646.152 599.534C647.02 600.56 647.941 601.613 649.182 602.146C651.09 602.959 653.292 602.333 655.267 601.707C658.35 600.72 661.433 599.734 664.529 598.748C666.064 598.708 667.185 600.427 666.971 601.946C666.758 603.466 665.597 604.679 664.316 605.518C663.034 606.358 661.593 606.931 660.352 607.824C655.788 611.076 655 617.672 656.241 623.137C656.575 624.576 657.016 626.015 657.83 627.241C659.218 629.347 661.58 630.666 664.035 631.226C666.491 631.786 669.067 631.639 671.562 631.306C674.645 630.893 677.755 630.147 680.37 628.467C682.986 626.788 685.055 624.043 685.295 620.951C685.615 616.7 682.546 612.861 682.345 608.61C682.265 607.024 682.759 605.212 684.16 604.465C685.535 603.746 687.283 604.319 688.431 605.358C689.579 606.398 690.299 607.81 691.153 609.103C692.995 611.902 695.798 614.367 699.147 614.581C702.711 614.82 705.887 612.515 708.703 610.329C711.105 608.477 713.614 606.464 714.615 603.599C715.482 601.134 715.055 598.335 713.894 595.989H713.908V595.976ZM654.2 598.228C649.035 598.228 644.858 594.057 644.858 588.899C644.858 583.742 649.035 579.57 654.2 579.57C659.364 579.57 663.542 583.742 663.542 588.899C663.542 594.057 659.364 598.228 654.2 598.228ZM674.885 598.228C675.993 598.228 676.887 599.121 676.887 600.227C676.887 601.333 675.993 602.226 674.885 602.226C673.778 602.226 672.883 601.333 672.883 600.227C672.883 599.121 673.778 598.228 674.885 598.228ZM669.547 590.232C670.655 590.232 671.549 591.125 671.549 592.231C671.549 593.337 670.655 594.23 669.547 594.23C668.439 594.23 667.545 593.337 667.545 592.231C667.545 591.125 668.439 590.232 669.547 590.232ZM670.214 627.548C665.05 627.548 660.872 623.376 660.872 618.219C660.872 613.061 665.05 608.89 670.214 608.89C675.379 608.89 679.556 613.061 679.556 618.219C679.556 623.376 675.379 627.548 670.214 627.548ZM677.554 590.232C676.447 590.232 675.553 589.339 675.553 588.233C675.553 587.127 676.447 586.234 677.554 586.234C678.662 586.234 679.556 587.127 679.556 588.233C679.556 589.339 678.662 590.232 677.554 590.232ZM682.893 598.228C681.785 598.228 680.891 597.335 680.891 596.229C680.891 595.123 681.785 594.23 682.893 594.23C684 594.23 684.894 595.123 684.894 596.229C684.894 597.335 684 598.228 682.893 598.228ZM682.225 580.903C677.061 580.903 672.883 576.732 672.883 571.574C672.883 566.416 677.061 562.245 682.225 562.245C687.39 562.245 691.567 566.416 691.567 571.574C691.567 576.732 687.39 580.903 682.225 580.903ZM700.909 608.89C695.744 608.89 691.567 604.719 691.567 599.561C691.567 594.403 695.744 590.232 700.909 590.232C706.074 590.232 710.251 594.403 710.251 599.561C710.251 604.719 706.074 608.89 700.909 608.89Z" fill="#64C0FF"/>
<path d="M576.955 652.776C556.069 653.203 535.064 653.003 514.285 653.123C512.763 664.531 513.951 676.592 516.94 687.666C518.422 693.157 520.477 698.635 524.2 702.926C529.445 708.963 537.853 712.055 545.78 710.922C548.156 710.576 550.491 709.883 552.88 709.683C555.722 709.43 558.659 709.869 561.354 708.923C565.131 707.617 567.507 703.965 569.589 700.554C572.444 695.889 575.34 691.145 576.702 685.854C577.703 681.962 577.849 677.898 577.983 673.873C578.223 666.81 578.437 659.666 576.942 652.763L576.955 652.776ZM516.42 659C516.887 658.773 517.421 658.8 517.941 658.84C521.104 659.04 524.254 659.24 527.417 659.44C527.603 659.44 527.804 659.466 527.964 659.586C528.164 659.733 528.204 659.999 528.244 660.239C528.471 661.998 528.404 663.798 528.057 665.543C523.973 665.357 519.89 665.157 515.806 664.97C515.859 664.97 515.299 659.546 516.42 659ZM524.067 698.222C523.039 696.449 522.012 694.677 521.131 692.824C518.502 687.333 517.02 680.99 516.073 674.966C521.278 678.311 525.215 683.375 527.91 688.933C530.606 694.49 532.114 700.554 533.142 706.644C529.058 705.405 526.202 701.913 524.067 698.222ZM550.544 661.212L548.329 662.878L549.223 665.49C549.397 665.983 548.836 666.41 548.396 666.103L546.127 664.517L543.912 666.183C543.498 666.503 542.911 666.09 543.071 665.597L543.885 662.958L541.616 661.372C541.189 661.066 541.389 660.399 541.923 660.386L544.686 660.333L545.5 657.694C545.647 657.201 546.354 657.187 546.527 657.68L547.422 660.293L550.184 660.239C550.705 660.239 550.931 660.892 550.518 661.212H550.544ZM575.06 682.602C573.552 686.587 571.777 690.465 570.002 694.343C568.814 696.942 567.613 699.554 565.878 701.807C564.13 704.059 561.795 705.711 559.019 706.351C558.405 700.807 559.886 695.236 561.968 690.052C563.329 686.667 564.971 683.362 567.306 680.55C569.629 677.738 572.685 675.432 576.208 674.486C576.715 677.151 576.021 680.07 575.06 682.602ZM576.488 665.93C572.404 665.743 568.321 665.543 564.237 665.357C564.29 665.357 563.73 659.933 564.851 659.386C565.318 659.16 565.852 659.186 566.372 659.226C569.535 659.426 572.685 659.626 575.848 659.826C576.034 659.826 576.235 659.853 576.395 659.973C576.595 660.119 576.635 660.386 576.675 660.626C576.902 662.385 576.835 664.184 576.488 665.93Z" fill="#64C0FF"/>
<path d="M361.584 708.59C362.065 702.326 362.639 696.062 363.212 689.812C363.519 686.4 363.84 682.975 364.147 679.563C368.297 681.256 372.835 683.202 376.038 686.32C376.878 687.133 377.639 688.04 378.56 688.759C380.468 690.238 383.031 690.812 385.379 690.305C385.54 693.477 385.339 696.675 384.779 699.807C383.031 699.181 381.216 698.555 379.374 698.795C375.931 699.234 373.662 702.433 371.006 704.658C368.297 706.937 365.081 708.35 361.558 708.603H361.584V708.59Z" fill="#64C0FF"/>
<path d="M387.128 699.927C389.317 700.18 391.532 700.26 393.734 700.154C394.108 696.502 394.441 692.864 394.762 689.212C394.788 688.839 394.815 688.426 394.561 688.146C394.361 687.933 394.054 687.866 393.774 687.826C391.545 687.453 387.382 686.36 387.435 689.612C387.488 693.05 387.021 696.475 387.155 699.927H387.128Z" fill="#64C0FF"/>
<path d="M359.462 708.163C360.25 701.846 359.956 695.449 359.676 689.092C359.556 686.493 359.542 683.855 359.436 681.269C353.377 681.322 347.064 681.376 341.006 681.123C340.458 690.025 340.405 698.954 340.845 707.857C347.064 707.737 353.257 707.644 359.462 708.177V708.163Z" fill="#64C0FF"/>
<path d="M337.709 707.563C337.202 698.821 337.309 690.038 338.03 681.309C335.521 681.056 332.945 682.002 330.449 682.375C329.342 682.548 328.207 682.562 327.086 682.575C324.644 682.615 322.175 682.642 319.786 682.069C317.411 681.496 315.182 680.336 312.753 679.99C310.324 679.643 307.455 680.443 306.481 682.695C305.56 684.801 306.641 687.213 307.708 689.252C307.989 689.785 308.269 690.385 308.095 690.971C307.815 691.851 306.694 692.077 305.974 692.664C305.079 693.383 304.879 694.836 305.56 695.769C305.96 696.329 306.587 696.662 307.095 697.115C307.602 697.568 308.029 698.261 307.829 698.914C307.615 699.607 306.841 699.914 306.267 700.353C305.28 701.1 304.812 702.406 304.919 703.632C305.026 704.858 305.64 706.004 306.481 706.91C306.908 707.364 307.388 707.777 307.962 708.003C308.509 708.216 309.123 708.256 309.71 708.27C312.326 708.35 314.942 708.163 317.504 707.697C319.893 707.27 322.242 706.604 324.644 706.257C327.046 705.911 329.555 705.871 331.837 706.671C332.878 707.03 333.866 707.563 334.933 707.83C336.001 708.097 336.855 708.256 337.709 707.563Z" fill="#64C0FF"/>
<path d="M212.769 616.992C213.036 621.097 211.728 625.175 209.846 628.84C208.565 631.319 206.857 633.798 204.281 634.877C203.894 634.144 204.001 633.238 204.334 632.492C204.668 631.745 205.189 631.092 205.682 630.426C209.005 625.868 210.42 619.964 209.499 614.394" fill="#64C0FF"/>
<path d="M194.258 600.667C191.549 601.04 188.88 601.733 186.317 602.706C184.823 603.279 183.355 603.959 181.9 604.625C181.259 604.918 180.632 605.212 179.991 605.505C179.057 605.931 178.123 606.371 177.322 607.011C176.201 607.89 175.401 609.116 174.253 609.969C173.492 610.542 172.598 610.916 171.797 611.422C169.155 613.128 167.66 616.153 165.191 618.112C163.83 619.192 162.215 619.911 160.894 621.031C159.986 621.804 159.226 622.763 158.225 623.403C157.451 623.896 156.557 624.176 155.676 624.456C151.846 625.655 148.016 626.855 144.185 628.054C142.731 628.507 141.236 628.974 139.715 629.027C137.246 629.107 134.883 628.121 132.615 627.148C132.281 627.001 131.907 626.788 131.921 626.428C131.921 626.242 132.041 626.082 132.174 625.949C132.975 625.149 134.23 625.096 135.351 625.176C137.833 625.349 140.315 625.989 142.797 625.749C144.185 625.615 145.533 625.216 146.881 624.816C149.524 624.029 152.179 623.243 154.688 622.097C158.091 620.551 161.201 618.352 163.87 615.727C164.818 614.794 165.712 613.808 166.646 612.848C171.063 608.37 176.335 604.838 181.793 601.733C185.049 599.881 188.666 598.122 192.363 598.641" fill="#64C0FF"/>
<path d="M200.517 632.145C195.219 631.039 189.88 629.933 184.462 629.813C179.044 629.693 173.492 630.599 168.794 633.292C168.034 633.731 167.286 634.224 166.432 634.438C165.258 634.731 164.017 634.464 162.816 634.358C160.84 634.171 158.865 634.384 156.89 634.598L138.193 636.597C137.566 640.315 141.276 643.487 141.463 647.245C141.689 651.696 137.112 654.881 135.831 659.146C134.443 663.757 137.045 669.048 135.003 673.406C134.336 674.832 133.202 676.032 132.668 677.524C131.987 679.443 132.468 681.736 133.869 683.215C135.27 684.694 137.526 685.307 139.501 684.748C139.808 687.52 139.434 690.305 139.474 693.09C139.514 695.876 139.995 698.794 141.743 700.967C142.824 702.326 144.719 703.339 146.294 702.579C147.909 701.806 148.229 699.714 148.562 697.955C150.017 690.372 155.649 683.721 162.909 681.043C162.549 680.403 162.509 679.59 162.802 678.91C162.335 678.55 161.881 678.204 161.414 677.844C160.013 676.765 157.891 677.018 156.169 677.404C154.448 677.791 152.486 678.137 151.005 677.164C149.964 676.471 149.39 675.245 149.216 674.006C149.043 672.766 149.216 671.514 149.403 670.274C149.55 669.275 150.07 668.262 150.951 667.782C152.673 669.168 152.032 672.673 154.154 673.34C155.315 673.713 156.543 672.793 157.064 671.687C157.584 670.581 157.597 669.328 157.811 668.129C158.678 663.264 163.136 659.293 168.074 658.973C169.462 658.96 169.942 660.785 169.995 662.171C170.049 663.557 170.596 665.383 171.984 665.303C175.053 662.904 177.576 659.786 179.271 656.267C179.951 654.868 180.525 653.362 181.673 652.309C182.447 651.59 183.434 651.15 184.395 650.723C191.869 647.392 199.809 644.206 205.041 637.929C203.64 637.25 201.905 637.29 200.543 638.036C200.93 636.437 201.584 634.917 202.465 633.518C201.931 632.972 201.291 632.319 200.543 632.159H200.517V632.145Z" fill="#64C0FF"/>
<path d="M64.6212 248.845L78.2868 246.83C78.9876 250.071 80.1264 258.043 80.5644 266.014C83.0172 262.247 87.0468 260.758 91.164 260.758C101.413 260.758 106.932 271.27 106.932 282.833C106.932 294.046 104.129 309.814 103.866 312.004L90.1128 310.865C91.7772 295.448 92.04 291.593 92.04 288.615C92.04 279.417 90.288 274.774 86.784 274.774C83.0172 274.774 80.652 280.906 80.652 309.727H66.7236C66.7236 278.979 66.7236 259.094 64.6212 248.845ZM158.765 310.427L145.187 307.186C146.238 303.332 147.552 297.638 149.216 289.579C142.471 290.717 133.623 294.309 126.878 299.215C127.141 301.93 127.929 304.12 128.718 306.485L115.14 309.639C112.074 300.879 110.059 290.279 110.059 279.68C110.059 260.671 120.659 246.217 136.602 246.217C152.37 246.217 163.933 261.196 163.933 279.68C163.933 284.41 163.845 290.893 158.765 310.427ZM149.742 275.387C148.603 266.627 143.259 260.057 136.602 260.057C128.63 260.057 123.9 268.73 123.9 279.68C123.9 281.607 123.987 283.359 124.163 285.023C131.258 280.118 142.734 276.351 149.742 275.387ZM200.723 246.567L214.476 247.793C212.374 276.351 205.453 293.521 187.67 316.647C173.567 290.455 165.332 268.555 162.967 249.283L176.72 247.531C178.385 259.882 182.502 274.774 189.51 290.893C195.817 277.84 199.409 262.598 200.723 246.567ZM244.507 245.866L242.668 259.882C242.142 259.619 241.266 259.532 240.04 259.532C235.046 259.532 231.805 263.737 230.404 272.234C234.346 272.146 238.112 272.059 241.704 271.445L243.193 285.374C239.251 285.812 235.134 285.987 230.579 286.075C232.418 293.959 237.762 297.901 246.697 297.901L248.186 311.741C227.776 311.741 215.95 299.39 215.95 279.242C215.95 259.619 225.586 245.603 240.74 245.603C242.054 245.603 243.193 245.779 244.507 245.866ZM279.172 247.005V260.846H270.762C271.025 269.606 271.2 279.943 271.2 292.645V308.588H257.36C257.36 285.199 257.184 269.255 256.834 260.671H249.914V246.83C254.994 246.83 273.916 247.005 279.172 247.005ZM330.314 245.516L339.074 256.203C333.906 260.671 322.518 277.227 322.518 281.695C322.518 284.848 339.687 295.273 345.907 297.375L342.052 310.69C334.957 308.588 327.861 305.347 322.255 299.74C322.605 301.843 322.605 305.171 322.605 306.923H308.764C308.764 297.55 307.626 261.634 306.224 249.37L320.065 248.669C320.328 251.823 320.415 254.977 320.415 258.393C322.78 253.487 325.846 249.02 330.314 245.516ZM378.062 246.567L391.815 247.793C389.712 276.351 382.792 293.521 365.009 316.647C350.906 290.455 342.671 268.555 340.306 249.283L354.059 247.531C355.724 259.882 359.841 274.774 366.849 290.893C373.156 277.84 376.748 262.598 378.062 246.567ZM440.47 310.427L426.892 307.186C427.944 303.332 429.258 297.638 430.922 289.579C424.177 290.717 415.329 294.309 408.584 299.215C408.847 301.93 409.635 304.12 410.424 306.485L396.846 309.639C393.78 300.879 391.765 290.279 391.765 279.68C391.765 260.671 402.364 246.217 418.308 246.217C434.076 246.217 445.639 261.196 445.639 279.68C445.639 284.41 445.551 290.893 440.47 310.427ZM431.448 275.387C430.309 266.627 424.965 260.057 418.308 260.057C410.336 260.057 405.606 268.73 405.606 279.68C405.606 281.607 405.693 283.359 405.868 285.023C412.964 280.118 424.44 276.351 431.448 275.387ZM454.168 245.603L468.097 247.005C466.695 252.699 462.49 276.964 462.49 286.863C462.49 296.324 466.082 299.915 475.28 299.915V313.756C458.198 313.756 448.562 304.033 448.562 286.863C448.562 276.526 452.767 250.159 454.168 245.603ZM505.615 247.005V260.846H497.205C497.468 269.606 497.643 279.943 497.643 292.645V308.588H483.802C483.802 285.199 483.627 269.255 483.277 260.671H476.356V246.83C481.437 246.83 500.359 247.005 505.615 247.005Z" fill="white"/>
<path d="M198.621 341.973H212.462C212.462 352.66 212.199 390.591 212.199 401.365H198.358C198.358 390.503 198.621 352.747 198.621 341.973ZM240.628 338.644C275.142 338.644 283.902 345.301 283.902 362.383C283.902 374.034 275.405 382.619 257.885 386.386C258.148 391.642 258.235 396.723 258.235 401.365H244.307C244.307 379.553 243.431 355.901 240.628 338.644ZM255.695 352.572C256.658 359.668 257.009 366.676 257.272 372.37C265.769 370.355 270.061 366.325 270.061 360.281C270.061 355.726 263.842 352.572 255.695 352.572ZM291.939 338.731L305.867 340.133C304.465 345.827 300.261 370.092 300.261 379.991C300.261 389.452 303.852 393.043 313.05 393.043V406.884C295.968 406.884 286.332 397.161 286.332 379.991C286.332 369.654 290.537 343.287 291.939 338.731ZM363.446 403.555L349.868 400.314C350.919 396.46 352.233 390.766 353.897 382.707C347.152 383.845 338.304 387.437 331.559 392.343C331.822 395.058 332.61 397.248 333.399 399.613L319.821 402.767C316.755 394.007 314.74 383.407 314.74 372.808C314.74 353.799 325.34 339.345 341.283 339.345C357.051 339.345 368.614 354.324 368.614 372.808C368.614 377.538 368.526 384.021 363.446 403.555ZM354.423 368.515C353.284 359.755 347.94 353.185 341.283 353.185C333.311 353.185 328.581 361.858 328.581 372.808C328.581 374.735 328.668 376.487 328.844 378.151C335.939 373.246 347.415 369.479 354.423 368.515ZM399.253 342.498L390.756 353.536C389.968 352.572 388.917 352.047 387.69 352.047C385.325 352.047 384.099 353.536 384.099 356.602C384.099 364.311 391.019 367.201 397.589 373.071C403.458 378.327 405.123 383.057 405.123 387.7C405.123 398.65 396.625 407.76 385.763 407.76C381.471 407.76 377.353 406.271 373.587 403.38L382.259 392.518C383.398 393.481 384.537 393.919 385.763 393.919C388.917 393.919 391.194 391.992 391.194 388.401C391.194 386.211 389.267 384.108 383.223 379.203C376.127 373.509 370.258 367.377 370.258 356.602C370.258 346.177 376.74 338.644 387.953 338.644C392.158 338.644 396.888 339.783 399.253 342.498ZM437.487 340.133V353.974H429.077C429.34 362.734 429.515 373.071 429.515 385.773V401.716H415.674C415.674 378.327 415.499 362.383 415.149 353.799H408.228V339.958C413.309 339.958 432.231 340.133 437.487 340.133ZM442.429 341.973H456.27C456.27 352.66 456.007 390.591 456.007 401.365H442.167C442.167 390.503 442.429 352.747 442.429 341.973ZM485.891 338.644L494.651 349.331C489.483 353.799 478.095 370.355 478.095 374.823C478.095 377.976 495.264 388.401 501.484 390.503L497.63 403.818C490.534 401.716 483.438 398.475 477.832 392.868C478.182 394.971 478.182 398.299 478.182 400.051H464.342C464.342 390.678 463.203 354.762 461.801 342.498L475.642 341.797C475.905 344.951 475.992 348.105 475.992 351.521C478.358 346.615 481.424 342.148 485.891 338.644ZM504.253 342.06H518.094C517.656 346.615 517.218 359.23 517.218 369.479C517.218 374.735 517.305 378.94 517.568 381.655H504.603C504.165 376.75 503.815 364.048 503.815 353.974C503.815 348.718 503.99 344.25 504.253 342.06ZM519.933 395.058C519.933 399 516.167 401.979 512.049 401.979C507.932 401.979 504.253 399 504.253 395.058C504.253 391.204 507.582 388.138 512.049 388.138C516.167 388.138 519.933 391.116 519.933 395.058Z" fill="white"/>
<path d="M270.82 12.2956H267.076V10.6044C267.076 8.76228 266.23 7.97711 265.264 7.97711C263.754 7.97711 263.27 8.76228 263.27 10.393V21.4459C263.27 23.0766 263.754 23.8618 265.264 23.8618C266.623 23.8618 267.076 23.0766 267.076 21.6573V19.0299H270.82V21.5365C270.82 24.6168 269.008 27.1233 265.264 27.1233C261.338 27.1233 259.526 24.6168 259.526 21.5365V10.3024C259.526 7.22214 261.338 4.71562 265.264 4.71562C269.008 4.71562 270.82 7.43353 270.82 10.695V12.2956ZM277.857 26.8213H274.474V10.5742H277.857V26.8213ZM277.857 8.09791H274.474V5.01761H277.857V8.09791ZM292.373 10.2722V13.0807C292.191 13.0505 292.01 13.0505 291.829 13.0505C291.225 13.0505 290.682 13.1713 290.198 13.5639C290.44 14.4095 290.561 15.4665 290.561 16.1308C290.561 21.0835 288.87 22.6538 285.427 22.6538H284.34C283.977 22.7444 283.675 23.0162 283.675 23.4088C283.675 25.6133 292.373 22.3518 292.373 28.0896C292.373 30.868 289.776 31.9551 285.427 31.9551C282.045 31.9551 280.051 31.0491 280.051 29.358C280.051 28.0896 281.078 27.0931 282.256 26.8213V26.7609C281.35 26.3985 280.716 25.7643 280.716 24.7074C280.716 23.59 281.863 22.5934 282.769 22.08C281.078 20.9023 280.595 20.0567 280.595 16.2516C280.595 11.7822 282.045 10.2722 285.85 10.2722C287.299 10.2722 288.537 10.7856 289.594 12.0238C290.5 10.695 290.953 10.2722 292.373 10.2722ZM286.484 29.5392C288.749 29.5392 289.353 29.1768 289.353 28.3312C289.353 27.4857 288.749 27.1233 286.484 27.1233C284.219 27.1233 283.615 27.4857 283.615 28.3312C283.615 29.1768 284.219 29.5392 286.484 29.5392ZM285.487 19.8755C286.816 19.8755 287.178 19.2111 287.178 16.463C287.178 13.7149 286.816 13.0505 285.487 13.0505C284.4 13.0505 283.796 13.7149 283.796 16.463C283.796 19.2111 284.4 19.8755 285.487 19.8755ZM297.577 15.3457H294.195C294.376 12.054 296.46 10.2722 299.631 10.2722C302.771 10.2722 304.553 11.7218 304.553 14.6813V25.0999C304.553 25.6133 304.674 26.2777 304.764 26.8213H301.533C301.503 26.3683 301.382 25.9455 301.352 25.5529C300.084 26.5797 299.027 27.1233 297.396 27.1233C295.101 27.1233 293.953 25.5529 293.953 23.4692C293.953 19.9057 296.309 17.9428 301.171 16.1006V15.1343C301.171 13.7753 300.627 13.0505 299.51 13.0505C297.97 13.0505 297.637 13.9565 297.577 15.3457ZM301.171 22.835V18.577C298.09 20.3285 297.335 21.4459 297.335 22.8652C297.335 23.9222 297.879 24.345 298.906 24.345C299.842 24.345 300.597 23.6504 301.171 22.835ZM311.358 26.8213H307.976V10.5742H311.207V12.4768H311.267C312.083 11.0876 313.502 10.2722 315.103 10.2722H315.797V13.8055C315.193 13.6545 314.619 13.4733 313.623 13.4733C312.475 13.4733 311.358 14.1981 311.358 15.6477V26.8213ZM321.233 16.5536H324.978V15.7081C324.978 13.8357 324.314 13.0505 323.106 13.0505C321.898 13.0505 321.233 13.8357 321.233 15.7081V16.5536ZM328.36 16.312V19.3319H321.233V21.6875C321.233 23.5598 321.898 24.345 323.106 24.345C324.314 24.345 324.978 23.5598 324.978 21.6875V21.3251H328.36C328.3 24.7678 326.88 27.1233 323.106 27.1233C319.24 27.1233 317.851 24.647 317.851 21.0835V16.312C317.851 12.7486 319.24 10.2722 323.106 10.2722C326.971 10.2722 328.36 12.7486 328.36 16.312ZM331.994 13.3525H330.122V10.5742H331.994V6.19537H335.377V10.5742H337.641V13.3525H335.377V22.7142C335.377 23.5598 335.739 24.043 336.524 24.043H337.641V26.9421C337.188 27.0629 336.796 27.1233 335.95 27.1233C333.414 27.1233 331.994 25.9455 331.994 23.4692V13.3525ZM340.399 13.3525H338.527V10.5742H340.399V6.19537H343.781V10.5742H346.046V13.3525H343.781V22.7142C343.781 23.5598 344.144 24.043 344.929 24.043H346.046V26.9421C345.593 27.0629 345.201 27.1233 344.355 27.1233C341.819 27.1233 340.399 25.9455 340.399 23.4692V13.3525ZM351.462 16.5536H355.206V15.7081C355.206 13.8357 354.542 13.0505 353.334 13.0505C352.126 13.0505 351.462 13.8357 351.462 15.7081V16.5536ZM358.589 16.312V19.3319H351.462V21.6875C351.462 23.5598 352.126 24.345 353.334 24.345C354.542 24.345 355.206 23.5598 355.206 21.6875V21.3251H358.589C358.528 24.7678 357.109 27.1233 353.334 27.1233C349.469 27.1233 348.079 24.647 348.079 21.0835V16.312C348.079 12.7486 349.469 10.2722 353.334 10.2722C357.2 10.2722 358.589 12.7486 358.589 16.312ZM377.403 14.5907L374.534 15.0739C374.293 13.7753 373.689 13.0505 372.601 13.0505C371.726 13.0505 371.122 13.5035 371.122 14.3491C371.122 16.8858 377.464 17.9126 377.464 22.7444C377.464 25.6435 375.47 27.1233 372.722 27.1233C369.763 27.1233 368.072 25.4321 367.558 22.5934L370.518 21.7781C370.729 23.137 371.212 24.345 372.752 24.345C373.628 24.345 374.262 23.8316 374.262 22.9256C374.262 20.1171 367.921 19.0601 367.921 14.6209C367.921 12.054 369.914 10.2722 372.45 10.2722C375.108 10.2722 376.89 12.054 377.403 14.5907ZM390.892 10.5742L387.359 15.7081L391.285 26.8213H387.872L385.154 18.7582H385.094L383.493 21.1439V26.8213H380.111V5.01761H383.493V16.312H383.554L387.268 10.5742H390.892ZM400.475 21.6875V15.7081C400.475 13.8357 399.811 13.0505 398.603 13.0505C397.395 13.0505 396.731 13.8357 396.731 15.7081V21.6875C396.731 23.5598 397.395 24.345 398.603 24.345C399.811 24.345 400.475 23.5598 400.475 21.6875ZM393.348 21.0835V16.312C393.348 12.7486 394.738 10.2722 398.603 10.2722C402.469 10.2722 403.858 12.7486 403.858 16.312V21.0835C403.858 24.647 402.469 27.1233 398.603 27.1233C394.738 27.1233 393.348 24.647 393.348 21.0835ZM417.095 26.8213H413.894V25.1301H413.834C412.716 26.5495 411.901 27.1233 410.21 27.1233C408.096 27.1233 406.767 25.5529 406.767 22.5934V14.8021C406.767 11.8426 408.096 10.2722 410.21 10.2722C411.689 10.2722 412.384 10.8762 413.713 11.9634V5.01761H417.095V26.8213ZM413.713 23.4994V13.8961C413.048 13.4129 412.444 13.0505 411.78 13.0505C410.874 13.0505 410.149 13.5337 410.149 15.6779V21.7177C410.149 23.8618 410.874 24.345 411.78 24.345C412.444 24.345 413.048 23.9826 413.713 23.4994ZM430.513 26.8213H427.312V25.1301H427.252C426.135 26.5495 425.319 27.1233 423.628 27.1233C421.514 27.1233 420.185 25.5529 420.185 22.5934V14.8021C420.185 11.8426 421.514 10.2722 423.628 10.2722C425.108 10.2722 425.802 10.8762 427.131 11.9634V5.01761H430.513V26.8213ZM427.131 23.4994V13.8961C426.467 13.4129 425.863 13.0505 425.198 13.0505C424.293 13.0505 423.568 13.5337 423.568 15.6779V21.7177C423.568 23.8618 424.293 24.345 425.198 24.345C425.863 24.345 426.467 23.9826 427.131 23.4994ZM436.986 16.5536H440.731V15.7081C440.731 13.8357 440.067 13.0505 438.859 13.0505C437.651 13.0505 436.986 13.8357 436.986 15.7081V16.5536ZM444.113 16.312V19.3319H436.986V21.6875C436.986 23.5598 437.651 24.345 438.859 24.345C440.067 24.345 440.731 23.5598 440.731 21.6875V21.3251H444.113C444.053 24.7678 442.633 27.1233 438.859 27.1233C434.993 27.1233 433.604 24.647 433.604 21.0835V16.312C433.604 12.7486 434.993 10.2722 438.859 10.2722C442.724 10.2722 444.113 12.7486 444.113 16.312ZM450.586 26.8213H447.204V10.5742H450.435V12.4768H450.495C451.311 11.0876 452.73 10.2722 454.331 10.2722H455.025V13.8055C454.421 13.6545 453.847 13.4733 452.851 13.4733C451.703 13.4733 450.586 14.1981 450.586 15.6477V26.8213Z" fill="white"/>
<path d="M642.899 75.5012V82.2054H644.349C646.795 82.2054 647.55 81.4504 647.55 78.8533C647.55 76.2562 646.795 75.5012 644.349 75.5012H642.899ZM642.899 94.2246H639.155V72.4209H644.53C649.151 72.4209 651.295 74.2027 651.295 78.8533C651.295 83.504 649.151 85.2857 644.53 85.2857H642.899V94.2246ZM657.486 94.2246H654.103V72.4209H657.486V94.2246ZM663.787 82.749H660.405C660.586 79.4573 662.67 77.6756 665.841 77.6756C668.982 77.6756 670.763 79.1251 670.763 82.0846V92.5033C670.763 93.0166 670.884 93.681 670.975 94.2246H667.743C667.713 93.7716 667.593 93.3488 667.562 92.9563C666.294 93.983 665.237 94.5266 663.606 94.5266C661.311 94.5266 660.164 92.9563 660.164 90.8725C660.164 87.309 662.519 85.3461 667.381 83.504V82.5376C667.381 81.1786 666.838 80.4539 665.72 80.4539C664.18 80.4539 663.848 81.3598 663.787 82.749ZM667.381 90.2383V85.9803C664.301 87.7318 663.546 88.8492 663.546 90.2685C663.546 91.3255 664.089 91.7483 665.116 91.7483C666.052 91.7483 666.807 91.0537 667.381 90.2383ZM683.216 81.994L680.347 82.4772C680.105 81.1786 679.501 80.4539 678.414 80.4539C677.538 80.4539 676.934 80.9068 676.934 81.7524C676.934 84.2891 683.276 85.3159 683.276 90.1477C683.276 93.0468 681.283 94.5266 678.535 94.5266C675.575 94.5266 673.884 92.8355 673.371 89.9967L676.33 89.1814C676.542 90.5403 677.025 91.7483 678.565 91.7483C679.441 91.7483 680.075 91.2349 680.075 90.3289C680.075 87.5204 673.733 86.4635 673.733 82.0242C673.733 79.4573 675.726 77.6756 678.263 77.6756C680.92 77.6756 682.702 79.4573 683.216 81.994ZM686.467 80.7559H684.595V77.9775H686.467V73.5987H689.849V77.9775H692.114V80.7559H689.849V90.1175C689.849 90.9631 690.212 91.4463 690.997 91.4463H692.114V94.3454C691.661 94.4662 691.269 94.5266 690.423 94.5266C687.886 94.5266 686.467 93.3488 686.467 90.8725V80.7559ZM697.741 94.2246H694.359V77.9775H697.741V94.2246ZM697.741 75.5012H694.359V72.4209H697.741V75.5012ZM711.804 77.9775L708.271 83.1114L712.197 94.2246H708.784L706.066 86.1615H706.006L704.405 88.5472V94.2246H701.023V72.4209H704.405V83.7154H704.466L708.18 77.9775H711.804ZM721.136 77.9775H724.337V79.6687H724.398C725.515 78.2493 726.33 77.6756 728.021 77.6756C730.135 77.6756 731.464 79.2459 731.464 82.2054V89.9967C731.464 92.9563 730.135 94.5266 728.021 94.5266C726.542 94.5266 725.847 93.9226 724.518 92.8355V99.3584H721.136V77.9775ZM724.518 81.2994V90.9027C725.183 91.3859 725.787 91.7483 726.451 91.7483C727.357 91.7483 728.082 91.2651 728.082 89.121V83.0812C728.082 80.937 727.357 80.4539 726.451 80.4539C725.787 80.4539 725.183 80.8163 724.518 81.2994ZM741.5 89.0908V83.1114C741.5 81.239 740.836 80.4539 739.628 80.4539C738.42 80.4539 737.756 81.239 737.756 83.1114V89.0908C737.756 90.9631 738.42 91.7483 739.628 91.7483C740.836 91.7483 741.5 90.9631 741.5 89.0908ZM734.373 88.4868V83.7154C734.373 80.1519 735.762 77.6756 739.628 77.6756C743.493 77.6756 744.883 80.1519 744.883 83.7154V88.4868C744.883 92.0503 743.493 94.5266 739.628 94.5266C735.762 94.5266 734.373 92.0503 734.373 88.4868ZM757.003 81.994L754.134 82.4772C753.892 81.1786 753.288 80.4539 752.201 80.4539C751.325 80.4539 750.721 80.9068 750.721 81.7524C750.721 84.2891 757.063 85.3159 757.063 90.1477C757.063 93.0468 755.07 94.5266 752.322 94.5266C749.362 94.5266 747.671 92.8355 747.158 89.9967L750.117 89.1814C750.329 90.5403 750.812 91.7483 752.352 91.7483C753.228 91.7483 753.862 91.2349 753.862 90.3289C753.862 87.5204 747.52 86.4635 747.52 82.0242C747.52 79.4573 749.513 77.6756 752.05 77.6756C754.707 77.6756 756.489 79.4573 757.003 81.994ZM762.912 83.9569H766.656V83.1114C766.656 81.239 765.992 80.4539 764.784 80.4539C763.576 80.4539 762.912 81.239 762.912 83.1114V83.9569ZM770.039 83.7154V86.7353H762.912V89.0908C762.912 90.9631 763.576 91.7483 764.784 91.7483C765.992 91.7483 766.656 90.9631 766.656 89.0908V88.7284H770.039C769.978 92.1711 768.559 94.5266 764.784 94.5266C760.919 94.5266 759.529 92.0503 759.529 88.4868V83.7154C759.529 80.1519 760.919 77.6756 764.784 77.6756C768.649 77.6756 770.039 80.1519 770.039 83.7154Z" fill="white"/>
<path d="M719.108 230.705H708.66V208.901H718.686V212.162H712.404V217.779H717.236V221.041H712.404V227.443H719.108V230.705ZM725.279 230.705H721.897V214.458H725.098V216.088C726.517 214.88 727.242 214.156 729.205 214.156C730.987 214.156 732.044 215.454 732.044 217.568V230.705H728.661V218.112C728.661 217.296 728.178 216.934 727.454 216.934C726.729 216.934 726.064 217.387 725.279 217.961V230.705ZM746.549 214.156V216.964C746.368 216.934 746.187 216.934 746.006 216.934C745.402 216.934 744.858 217.055 744.375 217.447C744.617 218.293 744.737 219.35 744.737 220.014C744.737 224.967 743.046 226.537 739.604 226.537H738.517C738.154 226.628 737.852 226.9 737.852 227.292C737.852 229.497 746.549 226.235 746.549 231.973C746.549 234.751 743.952 235.838 739.604 235.838C736.221 235.838 734.228 234.932 734.228 233.241C734.228 231.973 735.255 230.976 736.433 230.705V230.644C735.527 230.282 734.893 229.648 734.893 228.591C734.893 227.473 736.04 226.477 736.946 225.963C735.255 224.786 734.772 223.94 734.772 220.135C734.772 215.665 736.221 214.156 740.026 214.156C741.476 214.156 742.714 214.669 743.771 215.907C744.677 214.578 745.13 214.156 746.549 214.156ZM740.661 233.423C742.926 233.423 743.53 233.06 743.53 232.215C743.53 231.369 742.926 231.007 740.661 231.007C738.396 231.007 737.792 231.369 737.792 232.215C737.792 233.06 738.396 233.423 740.661 233.423ZM739.664 223.759C740.993 223.759 741.355 223.094 741.355 220.346C741.355 217.598 740.993 216.934 739.664 216.934C738.577 216.934 737.973 217.598 737.973 220.346C737.973 223.094 738.577 223.759 739.664 223.759ZM751.754 219.229H748.372C748.553 215.937 750.636 214.156 753.807 214.156C756.948 214.156 758.73 215.605 758.73 218.565V228.983C758.73 229.497 758.851 230.161 758.941 230.705H755.71C755.68 230.252 755.559 229.829 755.529 229.436C754.26 230.463 753.203 231.007 751.573 231.007C749.277 231.007 748.13 229.436 748.13 227.353C748.13 223.789 750.485 221.826 755.347 219.984V219.018C755.347 217.659 754.804 216.934 753.687 216.934C752.146 216.934 751.814 217.84 751.754 219.229ZM755.347 226.718V222.46C752.267 224.212 751.512 225.329 751.512 226.749C751.512 227.805 752.056 228.228 753.083 228.228C754.019 228.228 754.774 227.534 755.347 226.718ZM765.535 230.705H762.152V214.458H765.354V216.088C766.773 214.88 767.498 214.156 769.461 214.156C771.242 214.156 772.299 215.454 772.299 217.568V230.705H768.917V218.112C768.917 217.296 768.434 216.934 767.709 216.934C766.984 216.934 766.32 217.387 765.535 217.961V230.705ZM786.805 214.156V216.964C786.624 216.934 786.443 216.934 786.261 216.934C785.657 216.934 785.114 217.055 784.631 217.447C784.872 218.293 784.993 219.35 784.993 220.014C784.993 224.967 783.302 226.537 779.859 226.537H778.772C778.41 226.628 778.108 226.9 778.108 227.292C778.108 229.497 786.805 226.235 786.805 231.973C786.805 234.751 784.208 235.838 779.859 235.838C776.477 235.838 774.484 234.932 774.484 233.241C774.484 231.973 775.511 230.976 776.688 230.705V230.644C775.782 230.282 775.148 229.648 775.148 228.591C775.148 227.473 776.296 226.477 777.202 225.963C775.511 224.786 775.027 223.94 775.027 220.135C775.027 215.665 776.477 214.156 780.282 214.156C781.732 214.156 782.97 214.669 784.027 215.907C784.933 214.578 785.386 214.156 786.805 214.156ZM780.916 233.423C783.181 233.423 783.785 233.06 783.785 232.215C783.785 231.369 783.181 231.007 780.916 231.007C778.651 231.007 778.047 231.369 778.047 232.215C778.047 233.06 778.651 233.423 780.916 233.423ZM779.92 223.759C781.248 223.759 781.611 223.094 781.611 220.346C781.611 217.598 781.248 216.934 779.92 216.934C778.832 216.934 778.228 217.598 778.228 220.346C778.228 223.094 778.832 223.759 779.92 223.759ZM798.019 218.474L795.15 218.957C794.908 217.659 794.304 216.934 793.217 216.934C792.342 216.934 791.738 217.387 791.738 218.232C791.738 220.769 798.079 221.796 798.079 226.628C798.079 229.527 796.086 231.007 793.338 231.007C790.379 231.007 788.687 229.315 788.174 226.477L791.134 225.661C791.345 227.02 791.828 228.228 793.368 228.228C794.244 228.228 794.878 227.715 794.878 226.809C794.878 224 788.536 222.943 788.536 218.504C788.536 215.937 790.53 214.156 793.066 214.156C795.724 214.156 797.506 215.937 798.019 218.474ZM818.202 214.458L814.669 219.591L818.595 230.705H815.183L812.465 222.641H812.404L810.804 225.027V230.705H807.421V208.901H810.804V220.195H810.864L814.579 214.458H818.202ZM827.786 225.571V219.591C827.786 217.719 827.121 216.934 825.913 216.934C824.705 216.934 824.041 217.719 824.041 219.591V225.571C824.041 227.443 824.705 228.228 825.913 228.228C827.121 228.228 827.786 227.443 827.786 225.571ZM820.659 224.967V220.195C820.659 216.632 822.048 214.156 825.913 214.156C829.779 214.156 831.168 216.632 831.168 220.195V224.967C831.168 228.53 829.779 231.007 825.913 231.007C822.048 231.007 820.659 228.53 820.659 224.967ZM834.258 214.458H837.46V216.149H837.52C838.637 214.729 839.453 214.156 841.144 214.156C843.258 214.156 844.586 215.726 844.586 218.685V226.477C844.586 229.436 843.258 231.007 841.144 231.007C839.664 231.007 838.969 230.403 837.641 229.315V235.838H834.258V214.458ZM837.641 217.779V227.383C838.305 227.866 838.909 228.228 839.573 228.228C840.479 228.228 841.204 227.745 841.204 225.601V219.561C841.204 217.417 840.479 216.934 839.573 216.934C838.909 216.934 838.305 217.296 837.641 217.779ZM847.677 214.458H850.878V216.149H850.938C852.056 214.729 852.871 214.156 854.562 214.156C856.676 214.156 858.005 215.726 858.005 218.685V226.477C858.005 229.436 856.676 231.007 854.562 231.007C853.083 231.007 852.388 230.403 851.059 229.315V235.838H847.677V214.458ZM851.059 217.779V227.383C851.724 227.866 852.328 228.228 852.992 228.228C853.898 228.228 854.623 227.745 854.623 225.601V219.561C854.623 217.417 853.898 216.934 852.992 216.934C852.328 216.934 851.724 217.296 851.059 217.779ZM864.297 220.437H868.041V219.591C868.041 217.719 867.377 216.934 866.169 216.934C864.961 216.934 864.297 217.719 864.297 219.591V220.437ZM871.423 220.195V223.215H864.297V225.571C864.297 227.443 864.961 228.228 866.169 228.228C867.377 228.228 868.041 227.443 868.041 225.571V225.208H871.423C871.363 228.651 869.944 231.007 866.169 231.007C862.303 231.007 860.914 228.53 860.914 224.967V220.195C860.914 216.632 862.303 214.156 866.169 214.156C870.034 214.156 871.423 216.632 871.423 220.195ZM877.896 230.705H874.514V214.458H877.745V216.36H877.806C878.621 214.971 880.04 214.156 881.641 214.156H882.335V217.689C881.731 217.538 881.158 217.357 880.161 217.357C879.014 217.357 877.896 218.081 877.896 219.531V230.705Z" fill="white"/>
<path d="M738.211 369.577L736.731 378.938H739.751L738.271 369.577H738.211ZM736.188 382.2L735.523 387.032H731.899L735.916 365.228H740.567L744.583 387.032H740.959L740.295 382.2H736.188ZM749.999 387.032H746.617V365.228H749.999V387.032ZM760.045 370.785H763.428V387.032H760.227V385.401C758.807 386.609 758.083 387.334 756.12 387.334C754.338 387.334 753.281 386.035 753.281 383.921V370.785H756.663V383.378C756.663 384.193 757.146 384.555 757.871 384.555C758.596 384.555 759.26 384.102 760.045 383.529V370.785ZM776.816 387.032H773.434V374.439C773.434 373.623 772.92 373.261 772.256 373.261C771.531 373.261 770.867 373.714 770.082 374.288V387.032H766.699V370.785H769.9V372.415C771.32 371.207 772.045 370.483 773.645 370.483C775.336 370.483 775.88 371.087 776.605 372.415C778.235 370.845 779.141 370.483 780.38 370.483C782.493 370.483 783.55 371.781 783.55 373.895V387.032H780.168V374.439C780.168 373.623 779.625 373.261 778.96 373.261C778.235 373.261 777.571 373.714 776.816 374.288V387.032ZM790.254 387.032H786.872V370.785H790.254V387.032ZM790.254 368.308H786.872V365.228H790.254V368.308ZM796.919 387.032H793.536V370.785H796.737V372.415C798.157 371.207 798.882 370.483 800.845 370.483C802.626 370.483 803.683 371.781 803.683 373.895V387.032H800.301V374.439C800.301 373.623 799.818 373.261 799.093 373.261C798.368 373.261 797.704 373.714 796.919 374.288V387.032ZM810.367 387.032H806.985V370.785H810.367V387.032ZM810.367 368.308H806.985V365.228H810.367V368.308ZM820.414 370.785H823.796V387.032H820.595V385.401C819.176 386.609 818.451 387.334 816.488 387.334C814.706 387.334 813.649 386.035 813.649 383.921V370.785H817.032V383.378C817.032 384.193 817.515 384.555 818.24 384.555C818.964 384.555 819.629 384.102 820.414 383.529V370.785ZM837.185 387.032H833.802V374.439C833.802 373.623 833.289 373.261 832.624 373.261C831.9 373.261 831.235 373.714 830.45 374.288V387.032H827.068V370.785H830.269V372.415C831.688 371.207 832.413 370.483 834.014 370.483C835.705 370.483 836.248 371.087 836.973 372.415C838.604 370.845 839.51 370.483 840.748 370.483C842.862 370.483 843.919 371.781 843.919 373.895V387.032H840.537V374.439C840.537 373.623 839.993 373.261 839.329 373.261C838.604 373.261 837.94 373.714 837.185 374.288V387.032ZM864.052 387.032H860.851V385.341H860.79C859.673 386.76 858.858 387.334 857.166 387.334C855.052 387.334 853.724 385.763 853.724 382.804V375.013C853.724 372.053 855.052 370.483 857.166 370.483C858.646 370.483 859.341 371.087 860.669 372.174V365.228H864.052V387.032ZM860.669 383.71V374.107C860.005 373.623 859.401 373.261 858.737 373.261C857.831 373.261 857.106 373.744 857.106 375.888V381.928C857.106 384.072 857.831 384.555 858.737 384.555C859.401 384.555 860.005 384.193 860.669 383.71ZM870.343 375.556H866.961C867.142 372.264 869.226 370.483 872.397 370.483C875.538 370.483 877.319 371.932 877.319 374.892V385.31C877.319 385.824 877.44 386.488 877.531 387.032H874.299C874.269 386.579 874.148 386.156 874.118 385.763C872.85 386.79 871.793 387.334 870.162 387.334C867.867 387.334 866.719 385.763 866.719 383.68C866.719 380.116 869.075 378.153 873.937 376.311V375.345C873.937 373.986 873.393 373.261 872.276 373.261C870.736 373.261 870.404 374.167 870.343 375.556ZM873.937 383.045V378.787C870.857 380.539 870.102 381.656 870.102 383.076C870.102 384.133 870.645 384.555 871.672 384.555C872.608 384.555 873.363 383.861 873.937 383.045ZM869.317 365.772C869.317 364.08 870.706 362.691 872.397 362.691C874.088 362.691 875.477 364.08 875.477 365.772C875.477 367.463 874.088 368.852 872.397 368.852C870.706 368.852 869.317 367.463 869.317 365.772ZM870.826 365.772C870.826 366.647 871.521 367.342 872.397 367.342C873.273 367.342 873.967 366.647 873.967 365.772C873.967 364.896 873.273 364.201 872.397 364.201C871.521 364.201 870.826 364.896 870.826 365.772ZM889.771 374.801L886.902 375.284C886.661 373.986 886.057 373.261 884.97 373.261C884.094 373.261 883.49 373.714 883.49 374.56C883.49 377.096 889.832 378.123 889.832 382.955C889.832 385.854 887.839 387.334 885.091 387.334C882.131 387.334 880.44 385.643 879.927 382.804L882.886 381.989C883.097 383.347 883.581 384.555 885.121 384.555C885.997 384.555 886.631 384.042 886.631 383.136C886.631 380.328 880.289 379.271 880.289 374.831C880.289 372.264 882.282 370.483 884.819 370.483C887.476 370.483 889.258 372.264 889.771 374.801ZM895.68 376.764H899.425V375.919C899.425 374.046 898.761 373.261 897.553 373.261C896.345 373.261 895.68 374.046 895.68 375.919V376.764ZM902.807 376.522V379.542H895.68V381.898C895.68 383.77 896.345 384.555 897.553 384.555C898.761 384.555 899.425 383.77 899.425 381.898V381.536H902.807C902.747 384.978 901.328 387.334 897.553 387.334C893.687 387.334 892.298 384.857 892.298 381.294V376.522C892.298 372.959 893.687 370.483 897.553 370.483C901.418 370.483 902.807 372.959 902.807 376.522Z" fill="white"/>
<path d="M738.306 558.399V565.103H739.755C742.201 565.103 742.956 564.348 742.956 561.751C742.956 559.154 742.201 558.399 739.755 558.399H738.306ZM738.306 577.123H734.561V555.319H739.936C744.557 555.319 746.701 557.101 746.701 561.751C746.701 566.402 744.557 568.184 739.936 568.184H738.306V577.123ZM752.892 577.123H749.509V555.319H752.892V577.123ZM759.194 565.647H755.811C755.993 562.355 758.076 560.574 761.247 560.574C764.388 560.574 766.17 562.023 766.17 564.983V575.401C766.17 575.915 766.29 576.579 766.381 577.123H763.15C763.12 576.67 762.999 576.247 762.969 575.854C761.7 576.881 760.643 577.425 759.012 577.425C756.717 577.425 755.57 575.854 755.57 573.77C755.57 570.207 757.925 568.244 762.787 566.402V565.436C762.787 564.077 762.244 563.352 761.126 563.352C759.586 563.352 759.254 564.258 759.194 565.647ZM762.787 573.136V568.878C759.707 570.63 758.952 571.747 758.952 573.166C758.952 574.223 759.496 574.646 760.522 574.646C761.459 574.646 762.214 573.952 762.787 573.136ZM778.622 564.892L775.753 565.375C775.511 564.077 774.907 563.352 773.82 563.352C772.944 563.352 772.34 563.805 772.34 564.65C772.34 567.187 778.682 568.214 778.682 573.046C778.682 575.945 776.689 577.425 773.941 577.425C770.981 577.425 769.29 575.733 768.777 572.895L771.736 572.079C771.948 573.438 772.431 574.646 773.971 574.646C774.847 574.646 775.481 574.133 775.481 573.227C775.481 570.418 769.139 569.361 769.139 564.922C769.139 562.355 771.132 560.574 773.669 560.574C776.327 560.574 778.108 562.355 778.622 564.892ZM781.873 563.654H780.001V560.875H781.873V556.497H785.256V560.875H787.521V563.654H785.256V573.015C785.256 573.861 785.618 574.344 786.403 574.344H787.521V577.243C787.068 577.364 786.675 577.425 785.829 577.425C783.293 577.425 781.873 576.247 781.873 573.77V563.654ZM793.147 577.123H789.765V560.875H793.147V577.123ZM793.147 558.399H789.765V555.319H793.147V558.399ZM807.21 560.875L803.677 566.009L807.603 577.123H804.19L801.473 569.059H801.412L799.812 571.445V577.123H796.429V555.319H799.812V566.613H799.872L803.586 560.875H807.21ZM819.925 577.123H816.542V555.319H819.925V562.385C821.163 561.298 821.888 560.574 823.85 560.574C825.632 560.574 826.689 561.872 826.689 563.986V577.123H823.307V564.53C823.307 563.714 822.824 563.352 822.099 563.352C821.374 563.352 820.71 563.805 819.925 564.379V577.123ZM836.907 571.989V566.009C836.907 564.137 836.242 563.352 835.034 563.352C833.826 563.352 833.162 564.137 833.162 566.009V571.989C833.162 573.861 833.826 574.646 835.034 574.646C836.242 574.646 836.907 573.861 836.907 571.989ZM829.78 571.385V566.613C829.78 563.05 831.169 560.574 835.034 560.574C838.9 560.574 840.289 563.05 840.289 566.613V571.385C840.289 574.948 838.9 577.425 835.034 577.425C831.169 577.425 829.78 574.948 829.78 571.385ZM846.792 577.123H843.409V555.319H846.792V577.123ZM860.221 577.123H857.02V575.431H856.959C855.842 576.851 855.026 577.425 853.335 577.425C851.221 577.425 849.893 575.854 849.893 572.895V565.103C849.893 562.144 851.221 560.574 853.335 560.574C854.815 560.574 855.51 561.177 856.838 562.265V555.319H860.221V577.123ZM856.838 573.801V564.197C856.174 563.714 855.57 563.352 854.906 563.352C854 563.352 853.275 563.835 853.275 565.979V572.019C853.275 574.163 854 574.646 854.906 574.646C855.57 574.646 856.174 574.284 856.838 573.801ZM866.693 566.855H870.438V566.009C870.438 564.137 869.774 563.352 868.566 563.352C867.358 563.352 866.693 564.137 866.693 566.009V566.855ZM873.82 566.613V569.633H866.693V571.989C866.693 573.861 867.358 574.646 868.566 574.646C869.774 574.646 870.438 573.861 870.438 571.989V571.626H873.82C873.76 575.069 872.341 577.425 868.566 577.425C864.7 577.425 863.311 574.948 863.311 571.385V566.613C863.311 563.05 864.7 560.574 868.566 560.574C872.431 560.574 873.82 563.05 873.82 566.613ZM880.293 577.123H876.911V560.875H880.142V562.778H880.202C881.018 561.389 882.437 560.574 884.038 560.574H884.732V564.107C884.128 563.956 883.555 563.775 882.558 563.775C881.41 563.775 880.293 564.499 880.293 565.949V577.123Z" fill="white"/>
<path d="M598.657 707.496V714.2H600.227C602.22 714.2 602.945 713.052 602.945 710.848C602.945 708.613 602.099 707.496 599.865 707.496H598.657ZM598.657 698.557V704.415H600.016C601.435 704.415 602.522 703.449 602.522 701.637C602.522 699.614 601.737 698.557 600.076 698.557H598.657ZM594.912 717.28V695.477H600.469C604.485 695.477 606.267 697.53 606.267 701.245C606.267 703.117 605.482 705.08 603.67 705.805C605.572 706.65 606.69 708.16 606.69 710.969C606.69 714.562 605.089 717.28 600.831 717.28H594.912ZM613.243 717.28H609.861V695.477H613.243V717.28ZM619.726 707.013H623.471V706.167C623.471 704.295 622.806 703.51 621.598 703.51C620.39 703.51 619.726 704.295 619.726 706.167V707.013ZM626.853 706.771V709.791H619.726V712.146C619.726 714.019 620.39 714.804 621.598 714.804C622.806 714.804 623.471 714.019 623.471 712.146V711.784H626.853C626.793 715.227 625.373 717.582 621.598 717.582C617.733 717.582 616.344 715.106 616.344 711.542V706.771C616.344 703.208 617.733 700.731 621.598 700.731C625.464 700.731 626.853 703.208 626.853 706.771Z" fill="white"/>
<path d="M257.147 728.421V735.125H258.597C261.043 735.125 261.798 734.37 261.798 731.773C261.798 729.176 261.043 728.421 258.597 728.421H257.147ZM257.147 747.144H253.402V725.34H258.778C263.398 725.34 265.542 727.122 265.542 731.773C265.542 736.423 263.398 738.205 258.778 738.205H257.147V747.144ZM271.733 747.144H268.351V725.34H271.733V747.144ZM278.035 735.668H274.653C274.834 732.377 276.918 730.595 280.089 730.595C283.229 730.595 285.011 732.045 285.011 735.004V745.423C285.011 745.936 285.132 746.6 285.222 747.144H281.991C281.961 746.691 281.84 746.268 281.81 745.876C280.542 746.902 279.485 747.446 277.854 747.446C275.559 747.446 274.411 745.876 274.411 743.792C274.411 740.228 276.767 738.266 281.629 736.423V735.457C281.629 734.098 281.085 733.373 279.968 733.373C278.428 733.373 278.095 734.279 278.035 735.668ZM281.629 743.158V738.9C278.548 740.651 277.793 741.769 277.793 743.188C277.793 744.245 278.337 744.668 279.364 744.668C280.3 744.668 281.055 743.973 281.629 743.158ZM297.463 734.913L294.594 735.397C294.353 734.098 293.749 733.373 292.661 733.373C291.786 733.373 291.182 733.826 291.182 734.672C291.182 737.209 297.523 738.235 297.523 743.067C297.523 745.966 295.53 747.446 292.782 747.446C289.823 747.446 288.132 745.755 287.618 742.916L290.578 742.101C290.789 743.46 291.272 744.668 292.812 744.668C293.688 744.668 294.322 744.154 294.322 743.248C294.322 740.44 287.981 739.383 287.981 734.944C287.981 732.377 289.974 730.595 292.51 730.595C295.168 730.595 296.95 732.377 297.463 734.913ZM300.715 733.675H298.842V730.897H300.715V726.518H304.097V730.897H306.362V733.675H304.097V743.037C304.097 743.883 304.459 744.366 305.245 744.366H306.362V747.265C305.909 747.386 305.516 747.446 304.671 747.446C302.134 747.446 300.715 746.268 300.715 743.792V733.675ZM311.989 747.144H308.606V730.897H311.989V747.144ZM311.989 728.421H308.606V725.34H311.989V728.421ZM326.052 730.897L322.518 736.031L326.444 747.144H323.032L320.314 739.081H320.253L318.653 741.467V747.144H315.271V725.34H318.653V736.635H318.713L322.428 730.897H326.052ZM336.048 747.144V733.675H334.055V730.897H336.048V728.874C336.048 726.246 337.437 725.038 339.823 725.038H341.514V727.817H340.548C339.732 727.817 339.43 728.119 339.43 728.904V730.897H341.363V733.675H339.43V747.144H336.048ZM347.201 747.144H343.819V725.34H347.201V747.144ZM353.503 735.668H350.121C350.302 732.377 352.386 730.595 355.557 730.595C358.697 730.595 360.479 732.045 360.479 735.004V745.423C360.479 745.936 360.6 746.6 360.69 747.144H357.459C357.429 746.691 357.308 746.268 357.278 745.876C356.01 746.902 354.953 747.446 353.322 747.446C351.027 747.446 349.879 745.876 349.879 743.792C349.879 740.228 352.235 738.266 357.097 736.423V735.457C357.097 734.098 356.553 733.373 355.436 733.373C353.896 733.373 353.563 734.279 353.503 735.668ZM357.097 743.158V738.9C354.016 740.651 353.261 741.769 353.261 743.188C353.261 744.245 353.805 744.668 354.832 744.668C355.768 744.668 356.523 743.973 357.097 743.158ZM372.931 734.913L370.062 735.397C369.821 734.098 369.217 733.373 368.129 733.373C367.254 733.373 366.65 733.826 366.65 734.672C366.65 737.209 372.991 738.235 372.991 743.067C372.991 745.966 370.998 747.446 368.25 747.446C365.291 747.446 363.6 745.755 363.086 742.916L366.046 742.101C366.257 743.46 366.74 744.668 368.28 744.668C369.156 744.668 369.79 744.154 369.79 743.248C369.79 740.44 363.449 739.383 363.449 734.944C363.449 732.377 365.442 730.595 367.978 730.595C370.636 730.595 372.418 732.377 372.931 734.913ZM386.42 730.897L382.887 736.031L386.813 747.144H383.4L380.682 739.081H380.622L379.021 741.467V747.144H375.639V725.34H379.021V736.635H379.082L382.796 730.897H386.42ZM392.259 736.876H396.003V736.031C396.003 734.158 395.339 733.373 394.131 733.373C392.923 733.373 392.259 734.158 392.259 736.031V736.876ZM399.386 736.635V739.655H392.259V742.01C392.259 743.883 392.923 744.668 394.131 744.668C395.339 744.668 396.003 743.883 396.003 742.01V741.648H399.386C399.325 745.091 397.906 747.446 394.131 747.446C390.266 747.446 388.876 744.97 388.876 741.406V736.635C388.876 733.071 390.266 730.595 394.131 730.595C397.997 730.595 399.386 733.071 399.386 736.635Z" fill="white"/>
<path d="M5.55662 719.331H1.81194V697.527H12.2608V700.788H5.55662V706.405H10.5697V709.667H5.55662V719.331ZM18.4617 719.331H15.0794V703.084H18.4617V719.331ZM18.4617 700.607H15.0794V697.527H18.4617V700.607ZM30.7733 707.1L27.9043 707.583C27.6628 706.285 27.0588 705.56 25.9716 705.56C25.0958 705.56 24.4919 706.013 24.4919 706.858C24.4919 709.395 30.8337 710.422 30.8337 715.254C30.8337 718.153 28.8405 719.633 26.0924 719.633C23.1329 719.633 21.4418 717.941 20.9284 715.103L23.8879 714.287C24.0993 715.646 24.5825 716.854 26.1226 716.854C26.9984 716.854 27.6326 716.341 27.6326 715.435C27.6326 712.626 21.2908 711.569 21.2908 707.13C21.2908 704.563 23.2839 702.782 25.8206 702.782C28.4781 702.782 30.2599 704.563 30.7733 707.1ZM44.2623 703.084L40.729 708.217L44.6549 719.331H41.2424L38.5245 711.267H38.4641L36.8635 713.653V719.331H33.4813V697.527H36.8635V708.821H36.9239L40.6384 703.084H44.2623ZM50.1009 709.063H53.8455V708.217C53.8455 706.345 53.1812 705.56 51.9732 705.56C50.7652 705.56 50.1009 706.345 50.1009 708.217V709.063ZM57.2278 708.821V711.841H50.1009V714.197C50.1009 716.069 50.7652 716.854 51.9732 716.854C53.1812 716.854 53.8455 716.069 53.8455 714.197V713.834H57.2278C57.1674 717.277 55.7481 719.633 51.9732 719.633C48.1077 719.633 46.7186 717.156 46.7186 713.593V708.821C46.7186 705.258 48.1077 702.782 51.9732 702.782C55.8387 702.782 57.2278 705.258 57.2278 708.821ZM69.3478 707.1L66.4789 707.583C66.2373 706.285 65.6333 705.56 64.5461 705.56C63.6703 705.56 63.0664 706.013 63.0664 706.858C63.0664 709.395 69.4082 710.422 69.4082 715.254C69.4082 718.153 67.415 719.633 64.6669 719.633C61.7074 719.633 60.0163 717.941 59.5029 715.103L62.4624 714.287C62.6738 715.646 63.157 716.854 64.6971 716.854C65.5729 716.854 66.2071 716.341 66.2071 715.435C66.2071 712.626 59.8653 711.569 59.8653 707.13C59.8653 704.563 61.8584 702.782 64.3951 702.782C67.0526 702.782 68.8344 704.563 69.3478 707.1ZM75.4381 719.331H72.0558V703.084H75.2569V704.714C76.6762 703.506 77.401 702.782 79.3639 702.782C81.1457 702.782 82.2026 704.08 82.2026 706.194V719.331H78.8203V706.738C78.8203 705.922 78.3372 705.56 77.6124 705.56C76.8876 705.56 76.2232 706.013 75.4381 706.587V719.331ZM92.3596 708.67L89.4001 716.492C89.7323 716.733 90.0947 716.854 90.5477 716.854C91.7557 716.854 92.42 716.069 92.42 714.197V708.67H92.3596ZM88.464 719.3L87.105 722.954H85.1119L86.8634 718.334C85.7461 717.247 85.2931 715.586 85.2931 713.593V708.821C85.2931 705.258 86.6822 702.782 90.5477 702.782C91.3631 702.782 92.0576 702.902 92.6918 703.114L93.93 699.822H95.9835L94.3528 704.14C95.3795 705.228 95.8023 706.858 95.8023 708.821V713.593C95.8023 717.156 94.4132 719.633 90.5477 719.633C89.7323 719.633 89.0377 719.512 88.464 719.3ZM88.7358 714.106L91.7557 705.983C91.4537 705.681 91.0309 705.56 90.5477 705.56C89.3397 705.56 88.6754 706.345 88.6754 708.217V714.106H88.7358ZM102.275 719.331H98.8928V703.084H102.124V704.986H102.184C103 703.597 104.419 702.782 106.02 702.782H106.714V706.315C106.11 706.164 105.537 705.983 104.54 705.983C103.392 705.983 102.275 706.707 102.275 708.157V719.331ZM112.15 709.063H115.895V708.217C115.895 706.345 115.231 705.56 114.023 705.56C112.815 705.56 112.15 706.345 112.15 708.217V709.063ZM119.277 708.821V711.841H112.15V714.197C112.15 716.069 112.815 716.854 114.023 716.854C115.231 716.854 115.895 716.069 115.895 714.197V713.834H119.277C119.217 717.277 117.798 719.633 114.023 719.633C110.157 719.633 108.768 717.156 108.768 713.593V708.821C108.768 705.258 110.157 702.782 114.023 702.782C117.888 702.782 119.277 705.258 119.277 708.821Z" fill="white"/>
<path d="M402.707 84.2222V47.1983H396.363V42.8616C399.923 41.0493 403.224 39.1074 405.878 36.842H409.956V84.2222H402.707ZM438.134 74.06V47.6514C438.134 44.6092 436.775 43.1853 434.38 43.1853C431.985 43.1853 430.626 44.6092 430.626 47.6514V74.06C430.626 77.1022 431.985 78.5262 434.38 78.5262C436.775 78.5262 438.134 77.1022 438.134 74.06ZM422.988 72.0535V49.6579C422.988 40.8551 426.354 36.842 434.38 36.842C442.406 36.842 445.772 40.8551 445.772 49.6579V72.0535C445.772 80.8564 442.406 84.8694 434.38 84.8694C426.354 84.8694 422.988 80.8564 422.988 72.0535ZM477.424 46.81L474.253 66.8753H480.725L477.554 46.81H477.424ZM473.088 73.8658L471.664 84.2222H463.896L472.505 37.4893H482.473L491.082 84.2222H483.315L481.891 73.8658H473.088ZM470.887 28.4275C470.887 24.8028 473.864 21.8253 477.489 21.8253C481.114 21.8253 484.091 24.8028 484.091 28.4275C484.091 32.0522 481.114 35.0296 477.489 35.0296C473.864 35.0296 470.887 32.0522 470.887 28.4275ZM474.123 28.4275C474.123 30.3046 475.612 31.7933 477.489 31.7933C479.366 31.7933 480.855 30.3046 480.855 28.4275C480.855 26.5504 479.366 25.0617 477.489 25.0617C475.612 25.0617 474.123 26.5504 474.123 28.4275ZM503.79 44.0914V58.4608H506.638C510.975 58.4608 512.593 56.8426 512.593 51.2761C512.593 45.7096 510.975 44.0914 506.638 44.0914H503.79ZM503.79 65.063V84.2222H495.764V37.4893H507.026C516.023 37.4893 520.619 41.3082 520.619 51.2761C520.619 58.7845 517.706 61.8266 514.988 63.0564L521.784 84.2222H513.629L507.933 64.8688C506.897 64.9982 505.214 65.063 503.79 65.063Z" fill="white"/>
<path d="M725.02 150.81H702.689V144.531C712.657 129.967 718.094 121.941 718.094 115.08C718.094 111.391 716.67 109.773 714.469 109.773C711.88 109.773 710.586 111.779 710.586 114.627V117.799H702.948V115.598C702.948 108.737 707.349 103.429 714.857 103.429C721.46 103.429 725.732 108.349 725.732 113.786C725.732 121.165 723.401 126.602 710.844 144.207H725.02V150.81ZM746.725 140.647V114.239C746.725 111.197 745.366 109.773 742.971 109.773C740.576 109.773 739.217 111.197 739.217 114.239V140.647C739.217 143.69 740.576 145.114 742.971 145.114C745.366 145.114 746.725 143.69 746.725 140.647ZM731.579 138.641V116.245C731.579 107.442 734.945 103.429 742.971 103.429C750.997 103.429 754.363 107.442 754.363 116.245V138.641C754.363 147.444 750.997 151.457 742.971 151.457C734.945 151.457 731.579 147.444 731.579 138.641ZM786.015 113.397L782.844 133.463H789.316L786.145 113.397H786.015ZM781.678 140.453L780.255 150.81H772.487L781.096 104.077H791.064L799.673 150.81H791.905L790.481 140.453H781.678ZM779.478 95.0149C779.478 91.3902 782.455 88.4127 786.08 88.4127C789.705 88.4127 792.682 91.3902 792.682 95.0149C792.682 98.6396 789.705 101.617 786.08 101.617C782.455 101.617 779.478 98.6396 779.478 95.0149ZM782.714 95.0149C782.714 96.892 784.203 98.3807 786.08 98.3807C787.957 98.3807 789.446 96.892 789.446 95.0149C789.446 93.1378 787.957 91.6491 786.08 91.6491C784.203 91.6491 782.714 93.1378 782.714 95.0149ZM812.381 110.679V125.048H815.229C819.566 125.048 821.184 123.43 821.184 117.864C821.184 112.297 819.566 110.679 815.229 110.679H812.381ZM812.381 131.65V150.81H804.355V104.077H815.617C824.614 104.077 829.21 107.896 829.21 117.864C829.21 125.372 826.297 128.414 823.579 129.644L830.375 150.81H822.219L816.523 131.456C815.488 131.586 813.805 131.65 812.381 131.65Z" fill="white"/>
<path d="M834.187 442.447H811.856V436.169C821.824 421.605 827.261 413.579 827.261 406.718C827.261 403.029 825.837 401.41 823.637 401.41C821.048 401.41 819.753 403.417 819.753 406.265V409.436H812.115V407.236C812.115 400.375 816.517 395.067 824.025 395.067C830.627 395.067 834.899 399.986 834.899 405.423C834.899 412.802 832.569 418.239 820.012 435.845H834.187V442.447ZM855.892 432.285V405.877C855.892 402.834 854.533 401.41 852.138 401.41C849.743 401.41 848.384 402.834 848.384 405.877V432.285C848.384 435.327 849.743 436.751 852.138 436.751C854.533 436.751 855.892 435.327 855.892 432.285ZM840.746 430.279V407.883C840.746 399.08 844.112 395.067 852.138 395.067C860.164 395.067 863.53 399.08 863.53 407.883V430.279C863.53 439.081 860.164 443.095 852.138 443.095C844.112 443.095 840.746 439.081 840.746 430.279ZM884.653 432.285V405.877C884.653 402.834 883.294 401.41 880.899 401.41C878.504 401.41 877.145 402.834 877.145 405.877V432.285C877.145 435.327 878.504 436.751 880.899 436.751C883.294 436.751 884.653 435.327 884.653 432.285ZM869.507 430.279V407.883C869.507 399.08 872.873 395.067 880.899 395.067C888.925 395.067 892.291 399.08 892.291 407.883V430.279C892.291 439.081 888.925 443.095 880.899 443.095C872.873 443.095 869.507 439.081 869.507 430.279ZM923.943 405.035L920.772 425.1H927.244L924.073 405.035H923.943ZM919.607 432.091L918.183 442.447H910.415L919.024 395.714H928.992L937.601 442.447H929.833L928.409 432.091H919.607ZM917.406 386.653C917.406 383.028 920.383 380.05 924.008 380.05C927.633 380.05 930.61 383.028 930.61 386.653C930.61 390.277 927.633 393.255 924.008 393.255C920.383 393.255 917.406 390.277 917.406 386.653ZM920.642 386.653C920.642 388.53 922.131 390.018 924.008 390.018C925.885 390.018 927.374 388.53 927.374 386.653C927.374 384.776 925.885 383.287 924.008 383.287C922.131 383.287 920.642 384.776 920.642 386.653ZM950.309 402.317V416.686H953.157C957.494 416.686 959.112 415.068 959.112 409.501C959.112 403.935 957.494 402.317 953.157 402.317H950.309ZM950.309 423.288V442.447H942.283V395.714H953.545C962.542 395.714 967.138 399.533 967.138 409.501C967.138 417.01 964.225 420.052 961.507 421.282L968.303 442.447H960.147L954.451 423.094C953.416 423.223 951.733 423.288 950.309 423.288Z" fill="white"/>
<path d="M789.168 615.541H797.13V597.288H797L789.168 615.541ZM797 632.759V621.496H783.019V615.541L796.612 586.026H804.379V615.541H808.651V621.496H804.379V632.759H797ZM828.867 622.597V596.188C828.867 593.146 827.508 591.722 825.113 591.722C822.718 591.722 821.359 593.146 821.359 596.188V622.597C821.359 625.639 822.718 627.063 825.113 627.063C827.508 627.063 828.867 625.639 828.867 622.597ZM813.721 620.59V598.195C813.721 589.392 817.087 585.379 825.113 585.379C833.139 585.379 836.505 589.392 836.505 598.195V620.59C836.505 629.393 833.139 633.406 825.113 633.406C817.087 633.406 813.721 629.393 813.721 620.59ZM857.628 622.597V596.188C857.628 593.146 856.269 591.722 853.874 591.722C851.479 591.722 850.12 593.146 850.12 596.188V622.597C850.12 625.639 851.479 627.063 853.874 627.063C856.269 627.063 857.628 625.639 857.628 622.597ZM842.482 620.59V598.195C842.482 589.392 845.848 585.379 853.874 585.379C861.9 585.379 865.266 589.392 865.266 598.195V620.59C865.266 629.393 861.9 633.406 853.874 633.406C845.848 633.406 842.482 629.393 842.482 620.59ZM896.918 595.347L893.747 615.412H900.219L897.048 595.347H896.918ZM892.582 622.402L891.158 632.759H883.39L891.999 586.026H901.967L910.576 632.759H902.808L901.384 622.402H892.582ZM890.381 576.964C890.381 573.339 893.358 570.362 896.983 570.362C900.608 570.362 903.585 573.339 903.585 576.964C903.585 580.589 900.608 583.566 896.983 583.566C893.358 583.566 890.381 580.589 890.381 576.964ZM893.617 576.964C893.617 578.841 895.106 580.33 896.983 580.33C898.86 580.33 900.349 578.841 900.349 576.964C900.349 575.087 898.86 573.598 896.983 573.598C895.106 573.598 893.617 575.087 893.617 576.964ZM923.284 592.628V606.997H926.132C930.469 606.997 932.087 605.379 932.087 599.813C932.087 594.246 930.469 592.628 926.132 592.628H923.284ZM923.284 613.6V632.759H915.258V586.026H926.52C935.517 586.026 940.113 589.845 940.113 599.813C940.113 607.321 937.2 610.363 934.482 611.593L941.278 632.759H933.122L927.426 613.405C926.391 613.535 924.708 613.6 923.284 613.6Z" fill="white"/>
<path d="M535.562 756.596H543.524V738.343H543.394L535.562 756.596ZM543.394 773.813V762.55H529.413V756.596L543.006 727.08H550.773V756.596H555.045V762.55H550.773V773.813H543.394ZM560.374 760.285H567.624V764.039C567.624 766.564 569.048 768.117 571.184 768.117C573.708 768.117 575.132 766.628 575.132 762.421V751.806C575.132 748.764 573.579 747.534 571.766 747.534C569.307 747.534 568.142 749.152 567.43 751.094H561.216C561.475 743.844 561.798 738.148 561.798 727.08H581.281L581.022 733.682H568.4L567.947 743.78L568.077 743.909C570.083 741.514 571.766 741.191 574.226 741.191C580.375 741.191 582.77 745.657 582.77 753.489V759.961C582.77 769.8 579.663 774.46 571.896 774.46C565.423 774.46 560.374 771.612 560.374 763.845V760.285ZM604.022 763.651V737.242C604.022 734.2 602.663 732.776 600.268 732.776C597.873 732.776 596.514 734.2 596.514 737.242V763.651C596.514 766.693 597.873 768.117 600.268 768.117C602.663 768.117 604.022 766.693 604.022 763.651ZM588.876 761.644V739.249C588.876 730.446 592.242 726.433 600.268 726.433C608.294 726.433 611.66 730.446 611.66 739.249V761.644C611.66 770.447 608.294 774.46 600.268 774.46C592.242 774.46 588.876 770.447 588.876 761.644ZM643.312 736.401L640.141 756.466H646.613L643.442 736.401H643.312ZM638.976 763.457L637.552 773.813H629.784L638.393 727.08H648.361L656.97 773.813H649.203L647.779 763.457H638.976ZM636.775 718.018C636.775 714.394 639.752 711.416 643.377 711.416C647.002 711.416 649.979 714.394 649.979 718.018C649.979 721.643 647.002 724.62 643.377 724.62C639.752 724.62 636.775 721.643 636.775 718.018ZM640.011 718.018C640.011 719.895 641.5 721.384 643.377 721.384C645.254 721.384 646.743 719.895 646.743 718.018C646.743 716.141 645.254 714.653 643.377 714.653C641.5 714.653 640.011 716.141 640.011 718.018ZM669.678 733.682V748.052H672.526C676.863 748.052 678.481 746.433 678.481 740.867C678.481 735.3 676.863 733.682 672.526 733.682H669.678ZM669.678 754.654V773.813H661.652V727.08H672.914C681.911 727.08 686.507 730.899 686.507 740.867C686.507 748.375 683.594 751.417 680.876 752.647L687.672 773.813H679.516L673.821 754.46C672.785 754.589 671.102 754.654 669.678 754.654Z" fill="white"/>
<path d="M312.091 787.767H320.052V769.514H319.923L312.091 787.767ZM319.923 804.985V793.722H305.942V787.767L319.535 758.252H327.302V787.767H331.574V793.722H327.302V804.985H319.923ZM336.903 791.457H344.153V795.211C344.153 797.735 345.577 799.289 347.713 799.289C350.237 799.289 351.661 797.8 351.661 793.593V782.978C351.661 779.936 350.107 778.706 348.295 778.706C345.835 778.706 344.67 780.324 343.958 782.266H337.745C338.003 775.016 338.327 769.32 338.327 758.252H357.81L357.551 764.854H344.929L344.476 774.952L344.606 775.081C346.612 772.686 348.295 772.362 350.755 772.362C356.904 772.362 359.299 776.829 359.299 784.661V791.133C359.299 800.972 356.192 805.632 348.425 805.632C341.952 805.632 336.903 802.784 336.903 795.017V791.457ZM380.551 794.823V768.414C380.551 765.372 379.192 763.948 376.797 763.948C374.402 763.948 373.043 765.372 373.043 768.414V794.823C373.043 797.865 374.402 799.289 376.797 799.289C379.192 799.289 380.551 797.865 380.551 794.823ZM365.405 792.816V770.421C365.405 761.618 368.771 757.605 376.797 757.605C384.823 757.605 388.189 761.618 388.189 770.421V792.816C388.189 801.619 384.823 805.632 376.797 805.632C368.771 805.632 365.405 801.619 365.405 792.816ZM419.841 767.573L416.67 787.638H423.142L419.971 767.573H419.841ZM415.504 794.629L414.08 804.985H406.313L414.922 758.252H424.89L433.499 804.985H425.731L424.307 794.629H415.504ZM413.304 749.19C413.304 745.565 416.281 742.588 419.906 742.588C423.531 742.588 426.508 745.565 426.508 749.19C426.508 752.815 423.531 755.792 419.906 755.792C416.281 755.792 413.304 752.815 413.304 749.19ZM416.54 749.19C416.54 751.067 418.029 752.556 419.906 752.556C421.783 752.556 423.272 751.067 423.272 749.19C423.272 747.313 421.783 745.824 419.906 745.824C418.029 745.824 416.54 747.313 416.54 749.19ZM446.207 764.854V779.224H449.055C453.391 779.224 455.01 777.605 455.01 772.039C455.01 766.472 453.391 764.854 449.055 764.854H446.207ZM446.207 785.826V804.985H438.181V758.252H449.443C458.44 758.252 463.036 762.071 463.036 772.039C463.036 779.547 460.123 782.589 457.405 783.819L464.201 804.985H456.045L450.349 785.631C449.314 785.761 447.631 785.826 446.207 785.826Z" fill="white"/>
<path d="M31.6089 764.456H38.8583V768.211C38.8583 770.735 40.2823 772.288 42.4183 772.288C44.9427 772.288 46.3667 770.8 46.3667 766.592V755.977C46.3667 752.935 44.8132 751.705 43.0009 751.705C40.5412 751.705 39.3761 753.323 38.6642 755.265H32.4504C32.7093 748.016 33.0329 742.32 33.0329 731.251H52.5157L52.2568 737.854H39.6351L39.182 747.951L39.3114 748.081C41.318 745.686 43.0009 745.362 45.4605 745.362C51.6096 745.362 54.0045 749.828 54.0045 757.66V764.133C54.0045 773.971 50.8976 778.632 43.1303 778.632C36.6576 778.632 31.6089 775.784 31.6089 768.016V764.456ZM75.2566 767.822V741.414C75.2566 738.371 73.8974 736.947 71.5025 736.947C69.1076 736.947 67.7483 738.371 67.7483 741.414V767.822C67.7483 770.864 69.1076 772.288 71.5025 772.288C73.8974 772.288 75.2566 770.864 75.2566 767.822ZM60.1105 765.816V743.42C60.1105 734.617 63.4763 730.604 71.5025 730.604C79.5286 730.604 82.8944 734.617 82.8944 743.42V765.816C82.8944 774.619 79.5286 778.632 71.5025 778.632C63.4763 778.632 60.1105 774.619 60.1105 765.816ZM104.017 767.822V741.414C104.017 738.371 102.658 736.947 100.263 736.947C97.8681 736.947 96.5088 738.371 96.5088 741.414V767.822C96.5088 770.864 97.8681 772.288 100.263 772.288C102.658 772.288 104.017 770.864 104.017 767.822ZM88.8711 765.816V743.42C88.8711 734.617 92.2369 730.604 100.263 730.604C108.289 730.604 111.655 734.617 111.655 743.42V765.816C111.655 774.619 108.289 778.632 100.263 778.632C92.2369 778.632 88.8711 774.619 88.8711 765.816ZM143.307 740.572L140.136 760.638H146.609L143.437 740.572H143.307ZM138.971 767.628L137.547 777.984H129.78L138.388 731.251H148.356L156.965 777.984H149.198L147.774 767.628H138.971ZM136.77 722.19C136.77 718.565 139.747 715.588 143.372 715.588C146.997 715.588 149.974 718.565 149.974 722.19C149.974 725.814 146.997 728.792 143.372 728.792C139.747 728.792 136.77 725.814 136.77 722.19ZM140.006 722.19C140.006 724.067 141.495 725.556 143.372 725.556C145.249 725.556 146.738 724.067 146.738 722.19C146.738 720.313 145.249 718.824 143.372 718.824C141.495 718.824 140.006 720.313 140.006 722.19ZM169.673 737.854V752.223H172.521C176.858 752.223 178.476 750.605 178.476 745.038C178.476 739.472 176.858 737.854 172.521 737.854H169.673ZM169.673 758.825V777.984H161.647V731.251H172.909C181.907 731.251 186.502 735.07 186.502 745.038C186.502 752.547 183.589 755.589 180.871 756.819L187.667 777.984H179.512L173.816 758.631C172.78 758.76 171.097 758.825 169.673 758.825Z" fill="white"/>
<path d="M817.862 274.858H825.112V278.612C825.112 281.136 826.536 282.69 828.672 282.69C831.196 282.69 832.62 281.201 832.62 276.994V266.379C832.62 263.336 831.067 262.107 829.254 262.107C826.795 262.107 825.63 263.725 824.918 265.667H818.704C818.963 258.417 819.286 252.721 819.286 241.653H838.769L838.51 248.255H825.888L825.435 258.352L825.565 258.482C827.571 256.087 829.254 255.763 831.714 255.763C837.863 255.763 840.258 260.229 840.258 268.061V274.534C840.258 284.373 837.151 289.033 829.384 289.033C822.911 289.033 817.862 286.185 817.862 278.418V274.858ZM861.51 278.224V251.815C861.51 248.773 860.151 247.349 857.756 247.349C855.361 247.349 854.002 248.773 854.002 251.815V278.224C854.002 281.266 855.361 282.69 857.756 282.69C860.151 282.69 861.51 281.266 861.51 278.224ZM846.364 276.217V253.822C846.364 245.019 849.73 241.006 857.756 241.006C865.782 241.006 869.148 245.019 869.148 253.822V276.217C869.148 285.02 865.782 289.033 857.756 289.033C849.73 289.033 846.364 285.02 846.364 276.217ZM900.8 250.974L897.629 271.039H904.101L900.93 250.974H900.8ZM896.464 278.029L895.04 288.386H887.272L895.881 241.653H905.849L914.458 288.386H906.691L905.267 278.029H896.464ZM894.263 232.591C894.263 228.966 897.24 225.989 900.865 225.989C904.49 225.989 907.467 228.966 907.467 232.591C907.467 236.216 904.49 239.193 900.865 239.193C897.24 239.193 894.263 236.216 894.263 232.591ZM897.499 232.591C897.499 234.468 898.988 235.957 900.865 235.957C902.742 235.957 904.231 234.468 904.231 232.591C904.231 230.714 902.742 229.225 900.865 229.225C898.988 229.225 897.499 230.714 897.499 232.591ZM927.166 248.255V262.624H930.014C934.351 262.624 935.969 261.006 935.969 255.44C935.969 249.873 934.351 248.255 930.014 248.255H927.166ZM927.166 269.227V288.386H919.14V241.653H930.402C939.399 241.653 943.995 245.472 943.995 255.44C943.995 262.948 941.082 265.99 938.364 267.22L945.16 288.386H937.004L931.309 269.032C930.273 269.162 928.59 269.227 927.166 269.227Z" fill="white"/>
</g>
<defs>
<clipPath id="clip0_116_860">
<rect width="975" height="830" fill="white"/>
</clipPath>
</defs>
</svg>
